<svg width="35" height="37" viewBox="0 0 35 37" fill="none" xmlns="http://www.w3.org/2000/svg">
<g clip-path="url(#clip0_9_23713)">
<path d="M4.85767 12.2002C4.25463 12.2002 3.74296 12.4165 3.32236 12.8491C2.90177 13.2817 2.69141 13.8009 2.69141 14.4067V23.7096C2.69141 24.3306 2.9017 24.8565 3.32236 25.2891C3.74296 25.7217 4.25463 25.9381 4.85767 25.9381C5.46028 25.9381 5.96884 25.7218 6.38292 25.2891C6.79618 24.8565 7.00337 24.3306 7.00337 23.7096V14.4067C7.00337 13.8008 6.79308 13.2817 6.37242 12.8491C5.95176 12.4165 5.44674 12.2002 4.85767 12.2002Z" fill="white"/>
<path d="M22.2725 3.84887L23.7659 1.01521C23.8639 0.827609 23.8291 0.683752 23.661 0.582596C23.4785 0.49537 23.3384 0.539569 23.2404 0.712067L21.7261 3.56838C20.3936 2.96243 18.9843 2.65889 17.4982 2.65889C16.0117 2.65889 14.6023 2.96249 13.2703 3.56838L11.7559 0.712067C11.6575 0.539569 11.5174 0.495761 11.3353 0.582596C11.1669 0.684207 11.132 0.827609 11.2304 1.01521L12.7239 3.84887C11.2095 4.64321 10.0034 5.74948 9.10604 7.17009C8.20865 8.59148 7.75977 10.1447 7.75977 11.8326H27.2154C27.2154 10.1451 26.7665 8.5918 25.8691 7.17009C24.9717 5.74948 23.7726 4.64321 22.2725 3.84887ZM13.6382 7.97048C13.4767 8.13699 13.2838 8.21986 13.0596 8.21986C12.835 8.21986 12.646 8.13699 12.4918 7.97048C12.3377 7.80475 12.2606 7.60713 12.2606 7.37572C12.2606 7.14509 12.3377 6.94708 12.4918 6.78096C12.646 6.61523 12.8354 6.53237 13.0596 6.53237C13.2838 6.53237 13.4767 6.61523 13.6382 6.78096C13.7994 6.94747 13.8803 7.14509 13.8803 7.37572C13.8799 7.60674 13.799 7.80475 13.6382 7.97048ZM22.5037 7.97048C22.3492 8.13699 22.1598 8.21986 21.9359 8.21986C21.7112 8.21986 21.5184 8.13699 21.3572 7.97048C21.1958 7.80475 21.1152 7.60713 21.1152 7.37572C21.1152 7.14509 21.1958 6.94708 21.3572 6.78096C21.5184 6.61523 21.7112 6.53237 21.9359 6.53237C22.1602 6.53237 22.3491 6.61523 22.5037 6.78096C22.658 6.94747 22.7349 7.14509 22.7349 7.37572C22.7349 7.60674 22.6579 7.80475 22.5037 7.97048Z" fill="white"/>
<path d="M7.84375 27.0191C7.84375 27.6832 8.06797 28.2453 8.51648 28.7067C8.96536 29.168 9.5119 29.3986 10.1571 29.3986H11.7137L11.735 34.3102C11.735 34.9304 11.9453 35.4571 12.3659 35.8898C12.7865 36.3224 13.2916 36.5387 13.8803 36.5387C14.4829 36.5387 14.9949 36.3224 15.4156 35.8898C15.8362 35.4571 16.0465 34.9305 16.0465 34.3102V29.3991H18.9491V34.3102C18.9491 34.9304 19.1593 35.4571 19.5799 35.8898C20.0006 36.3224 20.5121 36.5387 21.1153 36.5387C21.7179 36.5387 22.2299 36.3224 22.6506 35.8898C23.0712 35.4571 23.2815 34.9305 23.2815 34.3102V29.3991H24.859C25.4899 29.3991 26.0294 29.1684 26.4788 28.7071C26.9272 28.2457 27.1516 27.6836 27.1516 27.0196V12.6104H7.84375V27.0191Z" fill="white"/>
<path d="M30.1395 12.2002C29.5503 12.2002 29.0457 12.4133 28.625 12.8384C28.2044 13.2642 27.9941 13.7873 27.9941 14.4067V23.7096C27.9941 24.3306 28.2044 24.8565 28.625 25.2891C29.0457 25.7218 29.5507 25.9381 30.1395 25.9381C30.7421 25.9381 31.2541 25.7218 31.6748 25.2891C32.0954 24.8565 32.3057 24.3306 32.3057 23.7096V14.4067C32.3057 13.7872 32.0954 13.2642 31.6748 12.8384C31.2541 12.4133 30.7421 12.2002 30.1395 12.2002Z" fill="white"/>
</g>
<defs>
<clipPath id="clip0_9_23713">
<rect width="35" height="36" fill="white" transform="translate(0 0.539062)"/>
</clipPath>
</defs>
</svg>
