<svg width="73" height="74" viewBox="0 0 73 74" fill="none" xmlns="http://www.w3.org/2000/svg">
<g clip-path="url(#clip0_107_72903)">
<path d="M10.3717 24.0358C9.11993 24.0358 8.05786 24.4723 7.18482 25.3453C6.31177 26.2184 5.87512 27.266 5.87512 28.4887V47.2624C5.87512 48.5157 6.31164 49.5769 7.18482 50.4501C8.05786 51.3231 9.11993 51.7598 10.3717 51.7598C11.6225 51.7598 12.6782 51.3232 13.5377 50.4501C14.3955 49.577 14.8256 48.5157 14.8256 47.2624V28.4887C14.8256 27.2659 14.389 26.2184 13.5159 25.3453C12.6427 24.4723 11.5944 24.0358 10.3717 24.0358Z" fill="#1A3453"/>
<path d="M46.5249 7.18197L49.6248 1.46346C49.8283 1.08487 49.7559 0.794555 49.407 0.590416C49.0283 0.414389 48.7373 0.503585 48.534 0.851698L45.3907 6.61592C42.6249 5.39306 39.6995 4.78052 36.6147 4.78052C33.5293 4.78052 30.6037 5.39319 27.8389 6.61592L24.6955 0.851698C24.4912 0.503585 24.2002 0.415178 23.8224 0.590416C23.4727 0.795475 23.4003 1.08487 23.6046 1.46346L26.7047 7.18197C23.5613 8.785 21.0577 11.0175 19.195 13.8844C17.3323 16.7528 16.4005 19.8874 16.4005 23.2937H56.785C56.785 19.8882 55.8531 16.7535 53.9905 13.8844C52.1277 11.0175 49.6386 8.785 46.5249 7.18197ZM28.6026 15.4996C28.2674 15.8357 27.867 16.0029 27.4015 16.0029C26.9352 16.0029 26.5429 15.8357 26.2229 15.4996C25.9029 15.1652 25.7429 14.7664 25.7429 14.2994C25.7429 13.834 25.9029 13.4343 26.2229 13.0991C26.5429 12.7647 26.9361 12.5974 27.4015 12.5974C27.867 12.5974 28.2674 12.7647 28.6026 13.0991C28.937 13.4351 29.1051 13.834 29.1051 14.2994C29.1041 14.7656 28.9363 15.1652 28.6026 15.4996ZM47.0048 15.4996C46.6841 15.8357 46.2909 16.0029 45.8263 16.0029C45.3598 16.0029 44.9596 15.8357 44.625 15.4996C44.2899 15.1652 44.1227 14.7664 44.1227 14.2994C44.1227 13.834 44.2899 13.4343 44.625 13.0991C44.9596 12.7647 45.3598 12.5974 45.8263 12.5974C46.2917 12.5974 46.684 12.7647 47.0048 13.0991C47.325 13.4351 47.4848 13.834 47.4848 14.2994C47.4848 14.7656 47.3249 15.1652 47.0048 15.4996Z" fill="#1A3453"/>
<path d="M16.5743 53.9412C16.5743 55.2814 17.0398 56.4158 17.9707 57.3468C18.9025 58.2778 20.0369 58.7432 21.3762 58.7432H24.6072L24.6515 68.6551C24.6515 69.9067 25.088 70.9695 25.961 71.8427C26.8341 72.7159 27.8825 73.1524 29.1044 73.1524C30.3554 73.1524 31.4181 72.7159 32.2913 71.8427C33.1645 70.9695 33.601 69.9068 33.601 68.6551V58.7441H39.6259V68.6551C39.6259 69.9067 40.0622 70.9695 40.9354 71.8427C41.8086 72.7159 42.8704 73.1524 44.1223 73.1524C45.3733 73.1524 46.436 72.7159 47.3092 71.8427C48.1823 70.9695 48.6187 69.9068 48.6187 68.6551V58.7441H51.8934C53.2029 58.7441 54.3228 58.2785 55.2555 57.3476C56.1863 56.4166 56.652 55.2821 56.652 53.9421V24.8634H16.5743V53.9412Z" fill="#1A3453"/>
<path d="M62.8516 24.0358C61.6288 24.0358 60.5813 24.4659 59.7081 25.3237C58.8351 26.183 58.3986 27.2387 58.3986 28.4887V47.2624C58.3986 48.5157 58.8349 49.5769 59.7081 50.4501C60.5813 51.3232 61.6296 51.7598 62.8516 51.7598C64.1026 51.7598 65.1653 51.3232 66.0385 50.4501C66.9117 49.5769 67.3481 48.5157 67.3481 47.2624V28.4887C67.3481 27.2385 66.9117 26.183 66.0385 25.3237C65.1653 24.4659 64.1026 24.0358 62.8516 24.0358Z" fill="#1A3453"/>
</g>
<defs>
<clipPath id="clip0_107_72903">
<rect width="72.6503" height="72.6503" fill="white" transform="translate(0.287231 0.503052)"/>
</clipPath>
</defs>
</svg>
