<svg width="73" height="74" viewBox="0 0 73 74" fill="none" xmlns="http://www.w3.org/2000/svg">
<g clip-path="url(#clip0_107_72891)">
<path d="M56.2335 41.2258C54.235 31.1682 63.7814 25.2696 63.7814 25.2696C63.7814 25.2696 60.062 19.8885 53.8111 18.5042C47.5633 17.1168 44.4363 18.8502 41.3154 20.1502C38.1915 21.4535 36.6327 21.4535 36.6327 21.4535C32.1246 21.4535 28.8291 16.6803 20.24 18.8534C14.3227 20.3467 8.09348 27.1776 6.96801 35.3303C5.84253 43.4862 8.27126 53.8929 12.954 61.9584C17.6367 70.0301 22.4068 73.0636 25.7925 73.1509C29.1783 73.235 32.5579 70.7253 36.6327 70.1143C40.7107 69.5094 43.2204 71.5921 47.2203 72.7176C51.2046 73.84 52.6014 72.7987 57.1906 68.8953C61.7922 64.9919 65.9575 53.7964 65.9575 53.7964C65.9575 53.7964 58.2319 51.2896 56.2335 41.2258Z" fill="#1A3453"/>
<path d="M47.3881 11.9974C51.8151 7.48623 50.3156 0.502563 50.3156 0.502563C50.3156 0.502563 44.099 1.59378 39.9337 5.9273C35.7716 10.264 36.4606 17.1135 36.4606 17.1135C36.4606 17.1135 42.9609 16.5056 47.3881 11.9974Z" fill="#1A3453"/>
</g>
<defs>
<clipPath id="clip0_107_72891">
<rect width="72.6503" height="72.6503" fill="white" transform="translate(0 0.503052)"/>
</clipPath>
</defs>
</svg>
