<svg width="35" height="37" viewBox="0 0 35 37" fill="none" xmlns="http://www.w3.org/2000/svg">
<g clip-path="url(#clip0_9_23701)">
<path d="M27.0901 20.7178C26.1274 15.734 30.7264 12.8111 30.7264 12.8111C30.7264 12.8111 28.9346 10.1446 25.9231 9.45865C22.9132 8.77118 21.4067 9.63011 19.9032 10.2743C18.3982 10.9201 17.6473 10.9201 17.6473 10.9201C15.4754 10.9201 13.8878 8.55489 9.7499 9.63169C6.89917 10.3717 3.89819 13.7565 3.35598 17.7964C2.81377 21.8379 3.98384 26.9947 6.23978 30.9913C8.49572 34.991 10.7938 36.4942 12.4249 36.5375C14.056 36.5791 15.6842 35.3355 17.6473 35.0327C19.6119 34.733 20.8209 35.765 22.7479 36.3227C24.6674 36.8789 25.3403 36.3629 27.5512 34.4287C29.7681 32.4945 31.7748 26.9468 31.7748 26.9468C31.7748 26.9468 28.0529 25.7047 27.0901 20.7178Z" fill="white"/>
<path d="M22.8279 6.23503C24.9607 3.99964 24.2383 0.539062 24.2383 0.539062C24.2383 0.539062 21.2434 1.07979 19.2367 3.22715C17.2316 5.37609 17.5635 8.77021 17.5635 8.77021C17.5635 8.77021 20.6951 8.46898 22.8279 6.23503Z" fill="white"/>
</g>
<defs>
<clipPath id="clip0_9_23701">
<rect width="35" height="36" fill="white" transform="translate(0 0.539062)"/>
</clipPath>
</defs>
</svg>
