<svg width="73" height="73" viewBox="0 0 73 73" fill="none" xmlns="http://www.w3.org/2000/svg">
<g clip-path="url(#clip0_107_72816)">
<path d="M24.8859 0.000488281C10.2433 0.000488281 0.0390625 5.08523 0.0390625 9.64885C0.0390625 14.2125 10.2433 19.2972 24.8859 19.2972C39.5285 19.2972 49.7328 14.2123 49.7328 9.64885C49.7328 5.08539 39.5287 0.000488281 24.8859 0.000488281Z" fill="#FFE492"/>
<path d="M0.0390625 53.9784V63.0025C0.0390625 67.5661 10.2433 72.6509 24.8859 72.6509C31.4485 72.6509 37.6429 71.6173 42.328 69.7402C45.3817 68.517 47.6418 66.9997 48.8183 65.423C46.6023 63.6893 44.0439 61.1965 41.8148 57.7573C36.9083 59.3283 31.109 60.1526 24.8861 60.1526C17.0561 60.1526 9.73151 58.8037 4.26147 56.3543C2.66596 55.6399 1.25471 54.8437 0.0390625 53.9784H0.0390625Z" fill="#FFE492"/>
<path d="M0.0392177 36.2344L0.0390625 45.1354C0.0390625 49.6989 10.2433 54.7836 24.8859 54.7836C30.079 54.7836 35.0616 54.1324 39.2359 52.9275C37.7222 49.4278 36.7436 45.5647 36.3119 41.3842C32.7413 42.0557 28.8502 42.4062 24.8859 42.4062C17.0055 42.4062 9.64644 41.042 4.16445 38.5649C2.60837 37.8617 1.22956 37.0809 0.0392177 36.2344V36.2344Z" fill="#FFE492"/>
<path d="M0.0390625 18.4834V27.3905C0.0390625 31.954 10.2433 37.0388 24.8859 37.0388C28.8022 37.0388 32.6201 36.6698 36.0568 35.9646C36.0616 35.1211 36.3133 32.9259 38.3456 32.368C41.5483 31.4887 43.7894 29.3781 43.9877 26.483C44.0693 25.2911 45.5608 23.6209 46.6718 23.6375H49.7329V18.4834C48.5424 19.3299 47.1643 20.1109 45.6083 20.8149C40.1193 23.298 32.7599 24.6656 24.8861 24.6656C17.0122 24.6656 9.65296 23.298 4.16398 20.8149C2.60775 20.1109 1.22956 19.3299 0.0390625 18.4834H0.0390625Z" fill="#FFE492"/>
<path d="M65.079 29.0059H49.0639C48.1685 32.7289 45.3058 35.7831 41.4336 37.1149C41.7348 54.9858 52.0069 61.8002 56.5357 63.9367C56.7946 64.0587 57.1014 64.0457 57.3568 63.9021C61.9031 61.3401 72.2114 53.7141 72.6913 37.1087C68.8285 35.7738 65.9731 32.7233 65.079 29.0059V29.0059ZM56.1119 52.2783C55.0251 53.3962 53.1544 53.3349 52.1432 52.1482L47.0399 46.1602L51.1271 42.6786L54.3174 46.4222L63.2178 37.2678L67.0682 41.0095L56.1119 52.2783Z" fill="#FFE492"/>
</g>
<defs>
<clipPath id="clip0_107_72816">
<rect width="72.6503" height="72.6503" fill="white" transform="translate(0.0390625)"/>
</clipPath>
</defs>
</svg>
