<svg width="74" height="73" viewBox="0 0 74 73" fill="none" xmlns="http://www.w3.org/2000/svg">
<g clip-path="url(#clip0_107_72835)">
<path d="M14.9452 54.5827V48.7447L24.8049 54.4528L36.9998 43.0364V68.9829L14.9452 54.5827Z" fill="#0093EB"/>
<path d="M3.14453 39.1452L15.9882 27.4692L37.0048 40.4426L24.8099 51.859L3.14453 39.1452Z" fill="#0093EB"/>
<path d="M15.9843 27.469L0.675781 15.793L22.7304 4.11719L38.2983 14.4957L15.9843 27.469Z" fill="#0093EB"/>
<path d="M59.0566 54.7121L37.002 68.9826V43.0361L49.5861 53.9337L59.0566 47.966V54.7121Z" fill="#0093EB"/>
<path d="M49.5861 51.3385L37.002 40.441L58.1484 26.9487L70.8622 37.8463L49.5861 51.3385Z" fill="#0093EB"/>
<path d="M58.146 26.9501L38.2969 14.4957L53.8648 4.11719L73.3247 15.793L58.146 26.9501Z" fill="#0093EB"/>
</g>
<defs>
<clipPath id="clip0_107_72835">
<rect width="72.6503" height="72.6503" fill="white" transform="translate(0.675781 0.225098)"/>
</clipPath>
</defs>
</svg>
