<svg width="50" height="90" viewBox="0 0 50 90" fill="none" xmlns="http://www.w3.org/2000/svg">
<path d="M14.1354 50.7339C13.7982 50.7339 6.3815 50.7339 3.01026 50.7339C1.21226 50.7339 0.650391 50.0596 0.650391 48.374C0.650391 43.879 0.650391 39.2716 0.650391 34.7766C0.650391 32.9787 1.32464 32.4168 3.01026 32.4168H14.1354C14.1354 32.0797 14.1354 25.5619 14.1354 22.5278C14.1354 18.0328 14.922 13.7626 17.1695 9.82946C19.5293 5.78397 22.9006 3.08697 27.1708 1.51373C29.9802 0.502355 32.7896 0.0528564 35.8237 0.0528564H46.8364C48.4097 0.0528564 49.0839 0.727105 49.0839 2.30035V15.1111C49.0839 16.6843 48.4097 17.3586 46.8364 17.3586C43.8023 17.3586 40.7682 17.3586 37.7341 17.4709C34.6999 17.4709 33.1267 18.9318 33.1267 22.0783C33.0143 25.4495 33.1267 28.7084 33.1267 32.192H46.1622C47.9602 32.192 48.6344 32.8663 48.6344 34.6643V48.2616C48.6344 50.0596 48.0725 50.6215 46.1622 50.6215C42.1167 50.6215 33.4638 50.6215 33.1267 50.6215V87.2556C33.1267 89.166 32.5648 89.8403 30.5421 89.8403C25.8223 89.8403 21.215 89.8403 16.4952 89.8403C14.8096 89.8403 14.1354 89.166 14.1354 87.4804C14.1354 75.6811 14.1354 51.071 14.1354 50.7339Z" fill="#1A3453"/>
</svg>
