<svg width="10" height="18" viewBox="0 0 10 18" fill="none" xmlns="http://www.w3.org/2000/svg">
<path d="M3.0058 10.1144C2.94316 10.1144 1.56497 10.1144 0.938515 10.1144C0.604408 10.1144 0.5 9.98912 0.5 9.6759C0.5 8.84063 0.5 7.98448 0.5 7.14921C0.5 6.81511 0.62529 6.7107 0.938515 6.7107H3.0058C3.0058 6.64805 3.0058 5.43692 3.0058 4.87311C3.0058 4.03784 3.15197 3.24434 3.56961 2.51348C4.00812 1.76174 4.63457 1.26058 5.42807 0.968239C5.95012 0.780304 6.47216 0.696777 7.03596 0.696777H9.08237C9.37471 0.696777 9.5 0.822067 9.5 1.11441V3.49492C9.5 3.78726 9.37471 3.91255 9.08237 3.91255C8.51856 3.91255 7.95476 3.91255 7.39095 3.93344C6.82715 3.93344 6.5348 4.2049 6.5348 4.78959C6.51392 5.41604 6.5348 6.0216 6.5348 6.66894H8.95708C9.29118 6.66894 9.41647 6.79423 9.41647 7.12833V9.65501C9.41647 9.98912 9.31207 10.0935 8.95708 10.0935C8.20534 10.0935 6.59745 10.0935 6.5348 10.0935V16.901C6.5348 17.2559 6.43039 17.3812 6.05452 17.3812C5.17749 17.3812 4.32135 17.3812 3.44432 17.3812C3.13109 17.3812 3.0058 17.2559 3.0058 16.9427C3.0058 14.7501 3.0058 10.1771 3.0058 10.1144Z" fill="#F7F7EE"/>
</svg>
