<svg width="74" height="74" viewBox="0 0 74 74" fill="none" xmlns="http://www.w3.org/2000/svg">
<g clip-path="url(#clip0_107_72854)">
<path d="M37.081 23.5472L22.0029 49.6998H21.9603L30.692 60.3482L11.099 68.5688C10.7155 68.3559 10.4174 68.0577 10.2472 67.7595L1.04675 50.722C0.578222 49.7848 0.961708 49.0609 1.08935 48.6349L25.7513 6.04113C25.9215 5.78557 26.1771 5.53001 26.518 5.31689H26.5606L39.2108 9.23567L37.081 23.5472Z" fill="#59C36A"/>
<path d="M73.4705 49.7002L56.3904 60.3487L52.344 49.7002L37.0812 23.5476L26.5605 5.31717C26.8584 5.1042 27.2419 4.97656 27.5828 4.97656H46.7215C47.1476 5.1042 47.9994 5.06161 48.553 6.04141L73.215 48.6352C73.3852 48.9335 73.4705 49.3167 73.4705 49.7002Z" fill="#FFDA2D"/>
<path d="M48.5538 6.04287C48.0004 5.06307 47.1484 5.10567 46.7223 4.97803H37.082V23.5489L52.3448 49.7015L56.3912 60.35L73.4713 49.7015C73.4713 49.318 73.386 48.9348 73.2158 48.6367L48.5538 6.04287Z" fill="#FDBF00"/>
<path d="M73.4692 49.7007C73.4692 50.0839 73.3839 50.4674 73.2562 50.7229L64.0558 67.7605C63.7149 68.3142 62.9059 68.8679 62.1817 68.8679H12.1199C11.779 68.8679 11.3957 68.74 11.0977 68.5697L21.9591 49.7007H73.4692Z" fill="#4086F4"/>
<path d="M37.082 68.8679H62.184C62.9082 68.8679 63.7174 68.3142 64.0581 67.7605L73.2585 50.7229C73.3862 50.4674 73.4715 50.0839 73.4715 49.7007H37.0822V68.8679H37.082Z" fill="#4175DF"/>
</g>
<defs>
<clipPath id="clip0_107_72854">
<rect width="72.6503" height="72.6503" fill="white" transform="translate(0.820312 0.59668)"/>
</clipPath>
</defs>
</svg>
