<svg width="74" height="74" viewBox="0 0 74 74" fill="none" xmlns="http://www.w3.org/2000/svg">
<g clip-path="url(#clip0_107_72862)">
<path d="M66.6325 22.1647H7.03663C5.86018 22.1647 4.9082 21.2128 4.9082 20.0363V6.98196C4.9082 3.46097 7.7725 0.59668 11.2935 0.59668H62.3757C65.8967 0.59668 68.761 3.46097 68.761 6.98196V20.0363C68.761 21.2128 67.809 22.1647 66.6325 22.1647Z" fill="#E3E7EA"/>
<path d="M62.377 0.59668H36.8359V22.1647H66.6339C67.8103 22.1647 68.7623 21.2128 68.7623 20.0363V6.98196C68.7623 3.46097 65.898 0.59668 62.377 0.59668Z" fill="#BABAC0"/>
<path d="M4.8244 45.5775C4.82511 45.5743 4.8254 45.5728 4.8254 45.5728L0.590965 25.4003C0.292986 23.4847 0.803808 21.569 1.99587 20.1642C3.23021 18.717 5.01795 17.9082 6.89096 17.9082H66.6573C68.5303 17.9082 70.3182 18.717 71.5525 20.1642C72.7446 21.5691 73.2554 23.4847 72.9574 25.3151L68.723 45.5828L72.9574 65.7552C73.2554 67.6708 72.7446 69.5865 71.5525 70.991C70.3182 72.4385 68.5305 73.2473 66.6574 73.2473H6.89096C5.01795 73.2473 3.23007 72.4385 1.99573 70.991C0.803808 69.5864 0.292986 67.6708 0.590965 65.8404C0.590965 65.8404 4.7509 45.9289 4.8244 45.5775Z" fill="#4086F4"/>
<path d="M4.82735 45.5723C4.82735 45.5723 4.82707 45.5738 4.82636 45.577H68.7261L72.9594 25.3146C73.2574 23.4842 72.7466 21.5686 71.5545 20.1637C70.3202 18.7165 68.5324 17.9077 66.6594 17.9077H6.89292C5.0199 17.9077 3.23202 18.7165 1.99768 20.1637C0.805761 21.5686 0.294939 23.4842 0.592918 25.3998L4.82735 45.5723Z" fill="#4175DF"/>
<path d="M15.4956 13.3672C16.6711 13.3672 17.624 12.4143 17.624 11.2388C17.624 10.0633 16.6711 9.11035 15.4956 9.11035C14.3201 9.11035 13.3672 10.0633 13.3672 11.2388C13.3672 12.4143 14.3201 13.3672 15.4956 13.3672Z" fill="#FFF5F5"/>
<path d="M58.062 13.3672C59.2375 13.3672 60.1904 12.4143 60.1904 11.2388C60.1904 10.0633 59.2375 9.11035 58.062 9.11035C56.8865 9.11035 55.9336 10.0633 55.9336 11.2388C55.9336 12.4143 56.8865 13.3672 58.062 13.3672Z" fill="#E3E7EA"/>
<path d="M28.2595 60.4767C24.6595 60.4767 21.4315 58.1966 20.2322 54.8002C19.8393 53.6922 20.4192 52.4763 21.5293 52.0856C22.6329 51.6907 23.8531 52.2747 24.2439 53.3826C24.8445 55.0787 26.4594 56.2198 28.2595 56.2198C30.6061 56.2198 32.5163 54.3096 32.5163 51.963C32.5163 49.6163 30.6061 47.7061 28.2595 47.7061H25.6136C24.4392 47.7061 23.4851 46.7541 23.4851 45.5777C23.4851 44.4012 24.4392 43.4493 25.6136 43.4493H28.2595C30.6061 43.4493 32.5163 41.5391 32.5163 39.1924C32.5163 36.8458 30.6061 34.9356 28.2595 34.9356C26.4594 34.9356 24.8445 36.0767 24.2437 37.7728C23.8529 38.8827 22.6308 39.4647 21.5291 39.0698C20.4192 38.679 19.8393 37.4631 20.2321 36.3552C21.4315 32.9588 24.6595 30.6787 28.2595 30.6787C32.9549 30.6787 36.7732 34.497 36.7732 39.1924C36.7732 41.7323 35.6549 44.0167 33.8841 45.5777C35.6549 47.1387 36.7732 49.423 36.7732 51.963C36.7732 56.6584 32.9549 60.4767 28.2595 60.4767Z" fill="#FFF5F5"/>
<path d="M21.5291 39.0694C22.6307 39.4643 23.8529 38.8824 24.2437 37.7724C24.8444 36.0763 26.4595 34.9352 28.2594 34.9352C30.6061 34.9352 32.5163 36.8454 32.5163 39.192C32.5163 41.5387 30.6061 43.4489 28.2594 43.4489H25.6135C24.4392 43.4489 23.4852 44.4007 23.4851 45.577H33.8843C35.655 44.016 36.7731 41.7318 36.7731 39.192C36.7731 34.4966 32.9549 30.6783 28.2594 30.6783C24.6594 30.6783 21.4314 32.9585 20.2321 36.3549C19.8392 37.4628 20.4191 38.6787 21.5291 39.0694Z" fill="#E3E7EA"/>
<path d="M49.5476 60.4764C48.3711 60.4764 47.4192 59.5244 47.4192 58.348V36.7831L44.3429 38.8346C43.3618 39.483 42.0419 39.2212 41.3913 38.2443C40.7386 37.2654 41.0027 35.9455 41.9816 35.2927L48.3669 31.0359C49.0196 30.6014 49.8613 30.56 50.5515 30.9299C51.2437 31.3 51.676 32.0212 51.676 32.8069V58.348C51.676 59.5244 50.724 60.4764 49.5476 60.4764Z" fill="#FFF5F5"/>
<path d="M44.3449 38.8355L47.4212 36.784V45.578H51.6781V32.8078C51.6781 32.0221 51.2457 31.3009 50.5536 30.9308C49.8635 30.5609 49.0217 30.6025 48.369 31.0368L41.9837 35.2937C41.0047 35.9464 40.7407 37.2662 41.3934 38.2452C42.0441 39.2222 43.3639 39.4841 44.3449 38.8355Z" fill="#E3E7EA"/>
</g>
<defs>
<clipPath id="clip0_107_72862">
<rect width="72.6503" height="72.6503" fill="white" transform="translate(0.453125 0.59668)"/>
</clipPath>
</defs>
</svg>
