<svg width="74" height="73" viewBox="0 0 74 73" fill="none" xmlns="http://www.w3.org/2000/svg">
<path d="M37.0329 0.0664063C35.7307 0.0664063 34.4293 0.136413 33.1345 0.275971C31.9477 0.397195 30.7755 0.596001 29.619 0.837236C29.3952 0.884058 29.1713 0.933457 28.9475 0.985128C22.1337 2.53648 15.9119 6.02029 11.0282 11.0188C10.5741 11.4843 10.1295 11.9636 9.69477 12.4565C-3.49736 27.6015 -1.91418 50.5734 13.231 63.7655C27.7305 76.3953 49.556 75.555 63.0415 61.8478C63.4966 61.3823 63.941 60.903 64.375 60.4101C70.1969 53.78 73.4052 45.2567 73.4001 36.4333C73.4001 16.3482 57.1179 0.0662547 37.0329 0.0664063ZM12.6441 12.8371C12.8357 12.6383 13.0345 12.448 13.2296 12.2553C13.4551 12.0334 13.6794 11.8104 13.9097 11.5958C14.1122 11.4067 14.3207 11.2249 14.5279 11.0406C14.7619 10.8333 14.9947 10.626 15.2347 10.426C15.4456 10.2478 15.6626 10.0769 15.8784 9.90475C16.1208 9.71079 16.3633 9.51683 16.613 9.33015C16.8336 9.16407 17.0579 9.00284 17.2834 8.84525C17.5343 8.66584 17.7864 8.48158 18.0422 8.3143C18.2713 8.15913 18.5029 8.00881 18.7356 7.85971C18.995 7.69363 19.2557 7.52998 19.5187 7.37481C19.7556 7.23344 19.9939 7.09433 20.2339 6.95781C20.5023 6.80506 20.7717 6.65596 21.0425 6.51049C21.2849 6.38124 21.5274 6.25471 21.7698 6.13106C22.0462 5.99165 22.325 5.8571 22.6051 5.72496C22.8475 5.6098 23.0996 5.49464 23.3494 5.38554C23.6342 5.26431 23.9228 5.14309 24.2113 5.02187C24.4622 4.91883 24.7119 4.81821 24.9653 4.72123C25.2586 4.60971 25.5556 4.50546 25.8526 4.4012C26.106 4.31271 26.3593 4.22422 26.6163 4.14057C26.9182 4.0436 27.2225 3.95389 27.5279 3.8654C27.7837 3.79145 28.0371 3.71508 28.2941 3.64598C28.3923 3.62053 28.4904 3.59992 28.5886 3.57446C25.0004 7.05857 22.3376 11.3826 20.8413 16.155C17.964 15.3962 15.1786 14.3242 12.535 12.9584C12.575 12.9159 12.609 12.8735 12.6441 12.8371ZM10.9009 14.7888C13.8129 16.3666 16.9007 17.5955 20.1006 18.4498C18.532 23.9042 17.7085 29.5458 17.6531 35.221H3.11841C3.38252 27.7372 6.11929 20.552 10.9009 14.7888ZM10.9009 58.0777C6.11959 52.3145 3.38283 45.1292 3.11841 37.6455H17.6531C17.7085 43.3207 18.5318 48.9623 20.1006 54.4168C16.9009 55.2714 13.813 56.5001 10.9009 58.0777ZM28.2868 69.2254C28.0419 69.1636 27.7886 69.0836 27.5364 69.0096C27.2297 68.9199 26.9218 68.8302 26.6188 68.732C26.363 68.6496 26.1108 68.5611 25.8587 68.4726C25.5605 68.3696 25.2623 68.2641 24.9677 68.1514C24.7156 68.0556 24.467 67.955 24.2173 67.8532C23.9276 67.7319 23.6379 67.6107 23.3506 67.4895C23.1033 67.3804 22.8572 67.2681 22.6123 67.1525C22.3299 67.0192 22.0486 66.8834 21.7638 66.7428C21.5213 66.6215 21.2789 66.5003 21.0364 66.3682C20.7625 66.2215 20.4909 66.0712 20.2194 65.916C19.9769 65.7815 19.7466 65.6433 19.5126 65.5027C19.246 65.3426 18.9841 65.1778 18.7223 65.0093C18.492 64.8626 18.2616 64.7135 18.0349 64.5607C17.7767 64.3862 17.521 64.2043 17.2676 64.0225C17.0458 63.8637 16.8239 63.7049 16.6057 63.5376C16.3548 63.3485 16.1087 63.1533 15.8638 62.957C15.6493 62.786 15.4359 62.6163 15.2262 62.4406C14.9837 62.2393 14.7498 62.0296 14.5146 61.8211C14.3085 61.6381 14.1012 61.4574 13.9 61.2707C13.6685 61.055 13.4442 60.8307 13.2187 60.6089C13.0236 60.4161 12.8248 60.2258 12.6332 60.0282C12.5981 59.9906 12.5641 59.9518 12.529 59.9155C15.1724 58.549 17.9578 57.4766 20.8352 56.7176C22.3319 61.4899 24.9945 65.8137 28.5826 69.2982C28.4844 69.2727 28.385 69.2521 28.2868 69.2254ZM35.8208 70.2801C30.6337 69.543 26.0866 64.1292 23.2257 56.1345C27.3619 55.2084 31.5827 54.7115 35.8208 54.6519V70.2801ZM35.8208 52.2275C31.325 52.2866 26.848 52.8206 22.4644 53.8204C20.9423 48.5612 20.1394 43.1201 20.0776 37.6455H35.8208V52.2275ZM35.8208 35.221H20.0776C20.1392 29.7464 20.9422 24.3053 22.4644 19.0462C26.848 20.0458 31.3251 20.5798 35.8208 20.6391V35.221ZM35.8208 18.2146C31.5826 18.1555 27.3619 17.6586 23.2257 16.732C26.0866 8.73736 30.6337 3.32353 35.8208 2.58649V18.2146ZM63.1652 14.7888C67.9465 20.5521 70.6833 27.7373 70.9477 35.221H56.413C56.3576 29.5458 55.5343 23.9042 53.9655 18.4498C57.1652 17.595 60.2531 16.3663 63.1652 14.7888ZM45.7696 3.63992C46.0242 3.70296 46.2775 3.78296 46.5297 3.85691C46.8364 3.94662 47.1443 4.03632 47.4474 4.13451C47.7031 4.21694 47.9553 4.30544 48.2074 4.39393C48.5056 4.49697 48.8038 4.60244 49.0984 4.71517C49.3506 4.81094 49.5991 4.91155 49.8488 5.01338C50.1385 5.13461 50.4282 5.25583 50.7155 5.37705C50.9628 5.48615 51.2089 5.59844 51.4538 5.71405C51.7362 5.8474 52.0175 5.98317 52.3023 6.12379C52.5448 6.24501 52.7872 6.36624 53.0297 6.49837C53.3037 6.64505 53.5752 6.79537 53.8467 6.95053C54.0892 7.08509 54.3195 7.22329 54.5535 7.3639C54.8202 7.52392 55.082 7.68878 55.3438 7.85728C55.5742 8.00396 55.8045 8.15307 56.0312 8.30581C56.2894 8.48037 56.544 8.661 56.7973 8.84283C57.0204 9.00163 57.2422 9.16165 57.4616 9.32772C57.7113 9.51562 57.9562 9.71079 58.2023 9.90717C58.4156 10.0769 58.6302 10.2466 58.8399 10.4236C59.0824 10.6248 59.3163 10.8345 59.5515 11.043C59.7576 11.2261 59.9649 11.4067 60.1661 11.5934C60.3976 11.8092 60.6219 12.0334 60.8474 12.2553C61.0426 12.448 61.2414 12.6383 61.4329 12.8359C61.468 12.8735 61.502 12.9123 61.5371 12.9487C58.8937 14.3152 56.1083 15.3875 53.2309 16.1465C51.7314 11.3737 49.0652 7.05009 45.4738 3.56719C45.572 3.59264 45.6714 3.61325 45.7696 3.63992ZM38.2453 2.58649C43.4324 3.32353 47.9795 8.73736 50.8404 16.732C46.7043 17.6582 42.4834 18.1551 38.2453 18.2146V2.58649ZM38.2453 20.6391C42.7412 20.58 47.2181 20.046 51.6017 19.0462C53.1238 24.3053 53.9267 29.7464 53.9886 35.221H38.2453V20.6391ZM38.2453 37.6455H53.9886C53.9269 43.1201 53.1239 48.5612 51.6017 53.8204C47.2181 52.8207 42.7412 52.2867 38.2453 52.2275V37.6455ZM38.2453 70.2801V54.6519C42.4836 54.711 46.7043 55.2079 50.8404 56.1345C47.9795 64.1292 43.4324 69.543 38.2453 70.2801ZM61.422 60.0294C61.2304 60.227 61.0329 60.4173 60.8377 60.6101C60.6122 60.8319 60.3867 61.0562 60.1552 61.272C59.954 61.4599 59.7467 61.6356 59.5406 61.8235C59.3054 62.032 59.0715 62.2405 58.8314 62.4418C58.6193 62.6188 58.4035 62.7897 58.1877 62.9618C57.9453 63.1558 57.7029 63.3497 57.4531 63.5364C57.2325 63.7025 57.0082 63.8637 56.7828 64.0213C56.5318 64.2007 56.2797 64.385 56.0239 64.5523C55.7948 64.7074 55.5633 64.8577 55.3305 65.0056C55.0711 65.1729 54.8097 65.3346 54.5462 65.4905C54.3037 65.6324 54.0722 65.7706 53.8334 65.9075C53.565 66.0603 53.2952 66.2094 53.0236 66.3549C52.7812 66.4841 52.5387 66.6106 52.2963 66.7343C52.0199 66.8737 51.7411 67.0082 51.4611 67.1404C51.2186 67.2555 50.9665 67.3707 50.7168 67.4798C50.4319 67.601 50.1434 67.7223 49.8549 67.8435C49.6039 67.9453 49.3542 68.0471 49.1021 68.1429C48.8063 68.2556 48.5093 68.3611 48.2111 68.4641C47.9589 68.5526 47.7068 68.6411 47.451 68.7236C47.1479 68.8218 46.8449 68.9115 46.5358 68.9999C46.2824 69.0751 46.0278 69.1503 45.772 69.2194C45.6739 69.2448 45.5757 69.2654 45.4775 69.2909C49.0657 65.8068 51.7285 61.4827 53.2249 56.7103C56.1021 57.4692 58.8875 58.5411 61.5311 59.907C61.4911 59.9506 61.4571 59.993 61.422 60.0294ZM63.1652 58.0777C60.2532 56.5 57.1654 55.2711 53.9655 54.4168C55.5342 48.9623 56.3576 43.3207 56.413 37.6455H70.9477C70.6837 45.1292 67.9468 52.3146 63.1652 58.0777Z" fill="#1A3453"/>
</svg>
