<svg width="74" height="74" viewBox="0 0 74 74" fill="none" xmlns="http://www.w3.org/2000/svg">
<g clip-path="url(#clip0_107_72809)">
<path d="M66.4806 7.44421C57.3506 -1.68574 42.4951 -1.6856 33.3651 7.44421C27.1294 13.6799 24.9641 22.8718 27.663 31.2092L1.30136 57.571C0.90207 57.9702 0.677734 58.5117 0.677734 59.0763V71.1183C0.677734 72.2941 1.63084 73.247 2.80644 73.247H14.8485C15.4132 73.247 15.9544 73.0227 16.3539 72.6234L19.3649 69.6124C19.8248 69.1524 20.0492 68.5075 19.974 67.8613L19.5983 64.6285L24.0799 64.2061C25.0976 64.1101 25.9036 63.3043 25.9995 62.2866L26.4222 57.8045L29.6553 58.1802C30.2589 58.2507 30.8631 58.0594 31.3168 57.6555C31.7703 57.2516 32.0299 56.6731 32.0299 56.0657V52.1014H35.9221C36.4824 52.1014 37.02 51.8805 37.4186 51.4866L42.7073 46.2589C51.0468 48.9621 60.2431 46.7972 66.4807 40.5595C75.6104 31.4297 75.6104 16.574 66.4806 7.44421ZM63.4701 37.5492C58.0971 42.9221 50.0375 44.5991 42.9375 41.8223C42.1539 41.5159 41.2637 41.6995 40.6656 42.2908L35.0476 47.844H29.901C28.7254 47.844 27.7723 48.7971 27.7723 49.9727V53.6752L24.7528 53.3243C24.1839 53.2583 23.6127 53.424 23.1675 53.7842C22.7225 54.1444 22.4413 54.6687 22.3875 55.2389L21.9259 60.1327L17.0326 60.5938C16.4624 60.6476 15.9381 60.9287 15.5777 61.3738C15.2174 61.8188 15.0516 62.3904 15.1177 62.9591L15.626 67.33L13.9666 68.9898H4.93501V59.9583L31.625 33.2683C32.223 32.6703 32.4104 31.7751 32.1024 30.9876C29.3252 23.8874 31.0026 15.8281 36.3754 10.4549C43.8456 2.98502 56.0001 2.98502 63.47 10.4549C70.9399 17.9247 70.9399 30.0793 63.4701 37.5492Z" fill="#4F9CF9"/>
<path d="M60.4576 13.4662C57.9676 10.9761 53.9159 10.9762 51.4261 13.4662C48.9361 15.9561 48.9361 20.0077 51.4261 22.4976C53.9159 24.9876 57.9676 24.9879 60.4576 22.4976C62.9475 20.0077 62.9475 15.9561 60.4576 13.4662ZM57.4471 19.4872C56.6172 20.3171 55.2668 20.3173 54.4367 19.4872C53.6067 18.6573 53.6067 17.3068 54.4367 16.4768C55.2689 15.6447 56.615 15.6447 57.4471 16.4768C58.2792 17.3088 58.279 18.6551 57.4471 19.4872Z" fill="#4F9CF9"/>
</g>
<defs>
<clipPath id="clip0_107_72809">
<rect width="72.6503" height="72.6503" fill="white" transform="translate(0.675781 0.59668)"/>
</clipPath>
</defs>
</svg>
