<svg width="16" height="16" viewBox="0 0 16 16" fill="none" xmlns="http://www.w3.org/2000/svg">
<path d="M15.4962 15.5387V15.5381H15.4999V10.0196C15.4999 7.31987 14.9246 5.24023 11.8002 5.24023C10.2983 5.24023 9.29033 6.07284 8.87884 6.86219H8.8354V5.49227H5.87305V15.5381H8.95767V10.5638C8.95767 9.25406 9.20344 7.98759 10.8091 7.98759C12.3911 7.98759 12.4147 9.48227 12.4147 10.6478V15.5387H15.4962Z" fill="#F7F7EE"/>
<path d="M0.723633 5.46484H3.85796V15.3156H0.723633V5.46484Z" fill="#F7F7EE"/>
<path d="M2.29104 0.539062C1.3023 0.539062 0.5 1.33763 0.5 2.32176C0.5 3.30589 1.3023 4.12115 2.29104 4.12115C3.27979 4.12115 4.08209 3.30589 4.08209 2.32176C4.08147 1.33763 3.27916 0.539063 2.29104 0.539063V0.539062Z" fill="#F7F7EE"/>
</svg>
