<svg width="73" height="74" viewBox="0 0 73 74" fill="none" xmlns="http://www.w3.org/2000/svg">
<path d="M72.8722 73.1528V73.1498H72.8902V46.4216C72.8902 33.346 70.1036 23.2736 54.9713 23.2736C47.6968 23.2736 42.815 27.3062 40.822 31.1293H40.6116V24.4943H26.2639V73.1498H41.2038V49.0574C41.2038 42.7139 42.3942 36.58 50.1707 36.58C57.8331 36.58 57.9473 43.8192 57.9473 49.4643V73.1528H72.8722Z" fill="#1A3453"/>
<path d="M1.32227 24.3593H16.5029V72.0699H1.32227V24.3593Z" fill="#1A3453"/>
<path d="M8.91489 0.502808C4.12607 0.502808 0.240234 4.37053 0.240234 9.13702C0.240234 13.9035 4.12607 17.8521 8.91489 17.8521C13.7037 17.8521 17.5896 13.9035 17.5896 9.13702C17.5865 4.37053 13.7007 0.502808 8.91489 0.502808V0.502808Z" fill="#1A3453"/>
</svg>
