<svg width="116" height="91" viewBox="0 0 116 91" fill="none" xmlns="http://www.w3.org/2000/svg">
<g clip-path="url(#clip0_9_23776)">
<path d="M0.21814 7.37401V28.4273C0.21814 34.8395 8.03132 38.2594 12.806 33.7708L35.5945 12.7175C40.5862 8.1221 37.3307 0 30.4942 0H7.70577C3.58215 0 0.21814 3.31296 0.21814 7.37401Z" fill="#4F9CF9"/>
<path d="M108.083 0H85.295C78.567 0 75.203 8.1221 80.1947 12.7175L102.983 33.7708C107.758 38.1525 115.571 34.8395 115.571 28.4273V7.37401C115.571 3.31296 112.207 0 108.083 0Z" fill="#4F9CF9"/>
<path d="M63.0491 51.4043L102.983 88.3812C107.758 92.7629 115.571 89.4499 115.571 83.0378V61.7707C115.571 59.7402 114.703 57.8165 113.184 56.4272L63.0491 9.93888C60.1192 7.26714 55.67 7.26714 52.7401 9.93888L2.6055 56.4272C1.08627 57.8165 0.21814 59.7402 0.21814 61.7707V83.0378C0.21814 89.4499 8.03132 92.8698 12.806 88.3812L52.7401 51.4043C55.67 48.7326 60.1192 48.7326 63.0491 51.4043Z" fill="#4F9CF9"/>
</g>
<defs>
<clipPath id="clip0_9_23776">
<rect width="115.353" height="90.4118" fill="white" transform="translate(0.21814)"/>
</clipPath>
</defs>
</svg>
