<svg width="75" height="60" viewBox="0 0 75 60" fill="none" xmlns="http://www.w3.org/2000/svg">
<g clip-path="url(#clip0_107_72545)">
<path d="M-0.000366211 5.52905V19.1492C-0.000366211 23.2975 5.05425 25.5099 8.14319 22.6061L22.8858 8.98594C26.1152 6.01301 24.0091 0.758545 19.5863 0.758545H4.84365C2.17593 0.758545 -0.000366211 2.90182 -0.000366211 5.52905Z" fill="white"/>
<path d="M69.7803 0.758545H55.0377C50.6851 0.758545 48.5088 6.01301 51.7381 8.98594L66.4808 22.6061C69.5697 25.4407 74.6244 23.2975 74.6244 19.1492V5.52905C74.6244 2.90182 72.4481 0.758545 69.7803 0.758545Z" fill="white"/>
<path d="M40.6472 34.0137L66.4819 57.9354C69.5709 60.7701 74.6255 58.6268 74.6255 54.4785V40.7201C74.6255 39.4065 74.0639 38.162 73.081 37.2632L40.6472 7.1883C38.7517 5.45986 35.8734 5.45986 33.9779 7.1883L1.5441 37.2632C0.561258 38.162 -0.000366211 39.4065 -0.000366211 40.7201V54.4785C-0.000366211 58.6268 5.05425 60.8392 8.14319 57.9354L33.9779 34.0137C35.8734 32.2853 38.7517 32.2853 40.6472 34.0137Z" fill="white"/>
</g>
<defs>
<clipPath id="clip0_107_72545">
<rect width="74.6259" height="58.4905" fill="white" transform="translate(0 0.758301)"/>
</clipPath>
</defs>
</svg>
