<svg width="116" height="91" viewBox="0 0 116 91" fill="none" xmlns="http://www.w3.org/2000/svg">
<g clip-path="url(#clip0_9_23801)">
<path d="M0.4534 7.37401V28.4273C0.4534 34.8395 8.26658 38.2594 13.0413 33.7708L35.8297 12.7175C40.8215 8.1221 37.566 0 30.7295 0H7.94103C3.81741 0 0.4534 3.31296 0.4534 7.37401Z" fill="white"/>
<path d="M108.319 0H85.5303C78.8022 0 75.4382 8.1221 80.43 12.7175L103.218 33.7708C107.993 38.1525 115.806 34.8395 115.806 28.4273V7.37401C115.806 3.31296 112.442 0 108.319 0Z" fill="white"/>
<path d="M63.2844 51.4043L103.218 88.3812C107.993 92.7629 115.806 89.4499 115.806 83.0378V61.7707C115.806 59.7402 114.938 57.8165 113.419 56.4272L63.2844 9.93888C60.3545 7.26714 55.9053 7.26714 52.9753 9.93888L2.84076 56.4272C1.32153 57.8165 0.4534 59.7402 0.4534 61.7707V83.0378C0.4534 89.4499 8.26658 92.8698 13.0413 88.3812L52.9753 51.4043C55.9053 48.7326 60.3545 48.7326 63.2844 51.4043Z" fill="white"/>
</g>
<defs>
<clipPath id="clip0_9_23801">
<rect width="115.353" height="90.4118" fill="white" transform="translate(0.4534)"/>
</clipPath>
</defs>
</svg>
