<svg width="74" height="73" viewBox="0 0 74 73" fill="none" xmlns="http://www.w3.org/2000/svg">
<g clip-path="url(#clip0_107_72882)">
<path d="M71.0568 16.1885H39.2723C38.0191 16.1885 37.002 17.2056 37.002 18.4588C37.002 19.712 38.0191 20.7291 39.2723 20.7291H64.441L50.4922 31.5767L40.4892 25.2153L38.0554 29.0476L49.407 36.2672C49.7748 36.5033 50.2016 36.6214 50.6239 36.6214C51.1143 36.6214 51.6092 36.4624 52.0179 36.1446L68.7864 23.0993V52.5136H39.2723C38.0191 52.5136 37.002 53.5307 37.002 54.7839C37.002 56.0371 38.0191 57.0543 39.2723 57.0543H71.0568C72.31 57.0543 73.3271 56.0371 73.3271 54.7839V18.4588C73.3271 17.2056 72.31 16.1885 71.0568 16.1885Z" fill="#1976D2"/>
<path d="M40.7197 3.08969C40.2021 2.65833 39.5074 2.47216 38.8535 2.60838L2.52836 9.41934C1.45223 9.61913 0.675781 10.5545 0.675781 11.6488V61.5958C0.675781 62.6856 1.45223 63.6255 2.52836 63.8253L38.8535 70.6363C38.9897 70.6635 39.1305 70.6771 39.2712 70.6771C39.798 70.6771 40.311 70.4955 40.7197 70.155C41.2419 69.7236 41.5416 69.0788 41.5416 68.4068V4.83783C41.5416 4.16128 41.2419 3.52105 40.7197 3.08969Z" fill="#2196F3"/>
<path d="M21.1075 52.5138C14.8505 52.5138 9.75586 46.4021 9.75586 38.8919C9.75586 31.3817 14.8505 25.27 21.1075 25.27C27.3645 25.27 32.4591 31.3817 32.4591 38.8919C32.4591 46.4021 27.3645 52.5138 21.1075 52.5138ZM21.1075 29.8107C17.3524 29.8107 14.2965 33.8836 14.2965 38.8919C14.2965 43.9003 17.3524 47.9732 21.1075 47.9732C24.8626 47.9732 27.9184 43.9003 27.9184 38.8919C27.9184 33.8836 24.8626 29.8107 21.1075 29.8107Z" fill="#FAFAFA"/>
</g>
<defs>
<clipPath id="clip0_107_72882">
<rect width="72.6503" height="72.6503" fill="white" transform="translate(0.675781 0.294922)"/>
</clipPath>
</defs>
</svg>
