<svg width="73" height="73" viewBox="0 0 73 73" fill="none" xmlns="http://www.w3.org/2000/svg">
<g clip-path="url(#clip0_107_72824)">
<path d="M56.94 26.6768H51.8265V15.0087C51.8265 6.73312 44.9519 0.000488281 36.5019 0.000488281C28.0519 0.000488281 21.1772 6.73312 21.1772 15.0087V26.6768H16.0742C11.3798 26.6768 7.56055 30.496 7.56055 35.1905V64.137C7.56055 68.8315 11.3798 72.6507 16.0742 72.6507H56.94C61.6345 72.6507 65.4537 68.8315 65.4537 64.137V35.1905C65.4537 30.496 61.6345 26.6768 56.94 26.6768ZM26.853 15.0087C26.853 9.86276 31.1815 5.67629 36.5019 5.67629C41.8222 5.67629 46.1507 9.86276 46.1507 15.0087V26.6768H26.853V15.0087ZM59.7779 64.137C59.7779 65.7019 58.5048 66.9749 56.94 66.9749H16.0742C14.5094 66.9749 13.2363 65.7019 13.2363 64.137V35.1905C13.2363 33.6256 14.5094 32.3526 16.0742 32.3526H56.94C58.5048 32.3526 59.7779 33.6256 59.7779 35.1905V64.137Z" fill="#4F9CF9"/>
<path d="M36.506 40.582C33.6064 40.582 31.2559 42.9325 31.2559 45.8321C31.2559 47.6836 32.2151 49.31 33.6628 50.2448V56.4743C33.6628 58.0415 34.9334 59.3122 36.5007 59.3122C38.068 59.3122 39.3386 58.0415 39.3386 56.4743V50.2515C40.7922 49.3178 41.7561 47.6881 41.7561 45.8321C41.7561 42.9325 39.4056 40.582 36.506 40.582Z" fill="#4F9CF9"/>
</g>
<defs>
<clipPath id="clip0_107_72824">
<rect width="72.6503" height="72.6503" fill="white" transform="translate(0.181641)"/>
</clipPath>
</defs>
</svg>
