<svg width="73" height="73" viewBox="0 0 73 73" fill="none" xmlns="http://www.w3.org/2000/svg">
<path d="M33.936 42.1978C33.3548 42.1978 32.7736 41.9764 32.3309 41.5325C31.4443 40.646 31.4443 39.2089 32.3309 38.3223L47.0437 23.6095C47.9291 22.7229 49.3685 22.7229 50.2539 23.6095C51.1405 24.4961 51.1405 25.9332 50.2539 26.8197L35.5411 41.5325C35.0984 41.9764 34.5172 42.1978 33.936 42.1978Z" fill="#FFE492"/>
<path d="M33.9391 42.199C33.3579 42.199 32.7779 41.9777 32.334 41.5338L24.9169 34.1178C24.0303 33.2313 24.0303 31.7942 24.9169 30.9076C25.8023 30.021 27.2405 30.021 28.1271 30.9076L35.5442 38.3236C36.4308 39.2102 36.4308 40.6473 35.5442 41.5338C35.1015 41.9777 34.5203 42.199 33.9391 42.199Z" fill="#FFE492"/>
<path d="M36.6514 65.8392C36.4153 65.8392 36.1757 65.8017 35.9396 65.7245C21.4277 60.9375 11.6779 47.4541 11.6779 32.1714C11.6779 30.9182 12.695 29.9011 13.9482 29.9011C15.2014 29.9011 16.2185 30.9182 16.2185 32.1714C16.2185 45.4891 24.7152 57.2403 37.362 61.412C38.5528 61.8048 39.1998 63.0887 38.807 64.2795C38.4926 65.2341 37.6049 65.8392 36.6514 65.8392Z" fill="#FFE492"/>
<path d="M13.9482 34.4417C12.695 34.4417 11.6779 33.4246 11.6779 32.1714V16.11C11.6779 14.8568 12.695 13.8397 13.9482 13.8397C15.2014 13.8397 16.2185 14.8568 16.2185 16.11V32.1714C16.2185 33.4258 15.2014 34.4417 13.9482 34.4417Z" fill="#FFE492"/>
<path d="M13.9462 18.3808C12.8315 18.3808 11.8587 17.5589 11.6997 16.4226C11.5272 15.1808 12.3933 14.0343 13.6363 13.8617C21.3055 12.7958 28.7079 10.5039 35.6391 7.04962C36.7618 6.49112 38.1251 6.94632 38.6836 8.06899C39.2433 9.19167 38.7858 10.5539 37.6643 11.1135C30.2914 14.7869 22.4179 17.2241 14.2607 18.3592C14.1551 18.374 14.0495 18.3808 13.9462 18.3808Z" fill="#FFE492"/>
<path d="M36.6514 65.8392C35.699 65.8392 34.8102 65.2341 34.4957 64.2795C34.103 63.0887 34.75 61.8048 35.9408 61.412C48.5876 57.2415 57.0843 45.4903 57.0843 32.1714C57.0843 30.9182 58.1014 29.9011 59.3546 29.9011C60.6078 29.9011 61.6249 30.9182 61.6249 32.1714C61.6249 47.453 51.875 60.9375 37.362 65.7245C37.1259 65.8028 36.8875 65.8392 36.6514 65.8392Z" fill="#FFE492"/>
<path d="M59.3542 34.4417C58.101 34.4417 57.0839 33.4246 57.0839 32.1714V16.11C57.0839 14.8568 58.101 13.8397 59.3542 13.8397C60.6075 13.8397 61.6246 14.8568 61.6246 16.11V32.1714C61.6246 33.4258 60.6075 34.4417 59.3542 34.4417Z" fill="#FFE492"/>
<path d="M59.3583 18.3808C59.2538 18.3808 59.1483 18.374 59.0427 18.3592C50.8854 17.2241 43.012 14.7869 35.6391 11.1135C34.5176 10.5539 34.0601 9.19167 34.6197 8.06899C35.1782 6.94632 36.5416 6.49112 37.6642 7.04962C44.5955 10.5028 51.9979 12.7958 59.667 13.8617C60.9089 14.0343 61.7762 15.1819 61.6036 16.4226C61.447 17.5589 60.4741 18.3808 59.3583 18.3808Z" fill="#FFE492"/>
</svg>
