<svg width="74" height="73" viewBox="0 0 74 73" fill="none" xmlns="http://www.w3.org/2000/svg">
<g clip-path="url(#clip0_107_72843)">
<path d="M27.4155 38.6787C23.2242 38.6787 19.8145 42.0884 19.8145 46.2797V65.2742C19.8145 69.4655 23.2242 72.8753 27.4155 72.8753C31.6068 72.8754 35.0165 69.4657 35.0165 65.2744V46.2797C35.0165 42.0884 31.6068 38.6787 27.4155 38.6787V38.6787Z" fill="#FF4340"/>
<path d="M15.5611 38.6787H8.20243C4.1448 38.6787 0.84375 41.9799 0.84375 46.0374C0.84375 50.095 4.14494 53.3961 8.20243 53.3961C12.2599 53.3961 15.5611 50.0949 15.5611 46.0374V38.6787Z" fill="#FF4340"/>
<path d="M0.820312 26.8211C0.820312 31.0124 4.23005 34.4222 8.42135 34.4222H27.4158C31.6073 34.4222 35.017 31.0124 35.017 26.8211C35.017 22.6298 31.6073 19.2201 27.416 19.2201H8.42135C4.23005 19.22 0.820313 22.6298 0.820313 26.8211H0.820312Z" fill="#36C6FF"/>
<path d="M27.6595 14.9625H35.0181V7.60379C35.0181 3.54616 31.7169 0.245117 27.6595 0.245117C23.6018 0.245117 20.3008 3.54631 20.3008 7.60379C20.3008 11.6613 23.6018 14.9625 27.6595 14.9625Z" fill="#36C6FF"/>
<path d="M46.8743 34.4218C51.0655 34.4218 54.4753 31.0121 54.4753 26.8208V7.82613C54.4754 3.63484 51.0655 0.225098 46.8743 0.225098C42.683 0.225098 39.2732 3.63484 39.2732 7.82613V26.8206C39.2732 31.0121 42.683 34.4218 46.8743 34.4218Z" fill="#0DC46E"/>
<path d="M58.7324 34.4224H66.0911C70.1487 34.4224 73.4498 31.1212 73.4498 27.0638C73.4498 23.0061 70.1486 19.7051 66.0911 19.7051C62.0336 19.7051 58.7324 23.0063 58.7324 27.0638V34.4224Z" fill="#0DC46E"/>
<path d="M73.4703 46.2801C73.4703 42.0888 70.0605 38.6791 65.8692 38.6791H46.8746C42.6833 38.6791 39.2736 42.0888 39.2736 46.2801C39.2736 50.4714 42.6833 53.8811 46.8746 53.8811H65.8691C70.0605 53.8813 73.4703 50.4714 73.4703 46.2801Z" fill="#FDCB02"/>
<path d="M46.6323 58.1375H39.2736V65.4961C39.2736 69.5538 42.5748 72.8548 46.6323 72.8548C50.6899 72.8548 53.9909 69.5536 53.9909 65.4961C53.9909 61.4386 50.6899 58.1375 46.6323 58.1375Z" fill="#FDCB02"/>
</g>
<defs>
<clipPath id="clip0_107_72843">
<rect width="72.6503" height="72.6503" fill="white" transform="translate(0.820312 0.225098)"/>
</clipPath>
</defs>
</svg>
