<svg width="73" height="60" viewBox="0 0 73 60" fill="none" xmlns="http://www.w3.org/2000/svg">
<path d="M72.746 7.25123C70.0443 8.43634 67.1655 9.22187 64.1642 9.60328C67.2518 7.75978 69.6084 4.86285 70.7163 1.3711C67.8375 3.08746 64.6591 4.29981 61.2718 4.97637C58.5383 2.06582 54.6424 0.263184 50.3924 0.263184C42.1466 0.263184 35.5082 6.95609 35.5082 15.161C35.5082 16.3416 35.6081 17.4768 35.8533 18.5574C23.4709 17.9535 12.5144 12.0189 5.15398 2.97849C3.86898 5.20794 3.11523 7.75978 3.11523 10.5069C3.11523 15.665 5.7715 20.2375 9.73094 22.8847C7.33803 22.8393 4.99051 22.1445 3.00171 21.0502C3.00171 21.0956 3.00171 21.1547 3.00171 21.2137C3.00171 28.4515 8.16442 34.4633 14.9345 35.8482C13.7222 36.1797 12.4008 36.3386 11.0296 36.3386C10.076 36.3386 9.11342 36.2841 8.20983 36.0843C10.1396 41.9826 15.6156 46.3189 22.1269 46.4597C17.0595 50.4237 10.6255 52.812 3.66011 52.812C2.43867 52.812 1.26719 52.7575 0.0957031 52.6077C6.69325 56.8623 14.5122 59.2915 22.9442 59.2915C50.3515 59.2915 65.3356 36.5883 65.3356 16.9092C65.3356 16.2508 65.3129 15.6151 65.2812 14.9839C68.2371 12.8862 70.7208 10.2662 72.746 7.25123Z" fill="#1A3453"/>
</svg>
