<svg width="18" height="14" viewBox="0 0 18 14" fill="none" xmlns="http://www.w3.org/2000/svg">
<path d="M17.5 1.768C16.8678 2.04531 16.1942 2.22913 15.4919 2.31837C16.2144 1.887 16.7658 1.20912 17.0251 0.392062C16.3514 0.793687 15.6077 1.07738 14.8151 1.23569C14.1754 0.554625 13.2638 0.132812 12.2693 0.132812C10.3398 0.132812 8.78644 1.69894 8.78644 3.61888C8.78644 3.89513 8.80981 4.16075 8.86719 4.41362C5.96975 4.27231 3.40594 2.88363 1.68362 0.768188C1.38294 1.28988 1.20656 1.887 1.20656 2.52981C1.20656 3.73681 1.82812 4.80675 2.75463 5.42619C2.19469 5.41556 1.64538 5.253 1.18 4.99694C1.18 5.00756 1.18 5.02137 1.18 5.03519C1.18 6.72881 2.38806 8.13556 3.97225 8.45963C3.68856 8.53719 3.37937 8.57438 3.0585 8.57438C2.83538 8.57438 2.61012 8.56162 2.39869 8.51488C2.85025 9.89506 4.13163 10.9097 5.65525 10.9427C4.4695 11.8702 2.96394 12.4291 1.33406 12.4291C1.04825 12.4291 0.774125 12.4164 0.5 12.3813C2.04381 13.3769 3.87344 13.9453 5.8465 13.9453C12.2597 13.9453 15.766 8.63281 15.766 4.02794C15.766 3.87387 15.7607 3.72513 15.7533 3.57744C16.4449 3.08656 17.0261 2.4735 17.5 1.768Z" fill="#F7F7EE"/>
</svg>
