<svg width="19" height="20" viewBox="0 0 19 20" fill="none" xmlns="http://www.w3.org/2000/svg">
<path d="M9.48901 0.197754C9.14844 0.197754 8.80811 0.216063 8.46948 0.252561C8.1591 0.284264 7.85253 0.336257 7.55008 0.399347C7.49155 0.411592 7.43298 0.424511 7.37445 0.438024C5.59245 0.843746 3.96529 1.75486 2.68809 3.0621C2.56932 3.18384 2.45305 3.30918 2.33935 3.4381C-1.11075 7.39894 -0.696703 13.4067 3.26417 16.8568C7.05619 20.1598 12.7641 19.94 16.291 16.3552C16.41 16.2335 16.5262 16.1082 16.6397 15.9792C18.1623 14.2453 19.0013 12.0162 19 9.70867C19 4.45589 14.7418 0.197714 9.48901 0.197754ZM3.11069 3.53765C3.16078 3.48565 3.21277 3.43588 3.26382 3.38547C3.32278 3.32745 3.38143 3.26912 3.44167 3.213C3.49461 3.16355 3.54914 3.11599 3.60336 3.0678C3.66454 3.01359 3.72541 2.95938 3.78819 2.90707C3.84335 2.86047 3.9001 2.81576 3.95653 2.77075C4.01994 2.72002 4.08334 2.6693 4.14865 2.62047C4.20635 2.57704 4.265 2.53487 4.32397 2.49366C4.3896 2.44674 4.45554 2.39855 4.52243 2.3548C4.58235 2.31422 4.6429 2.27491 4.70377 2.23591C4.77162 2.19248 4.83978 2.14968 4.90858 2.1091C4.97052 2.07213 5.03285 2.03575 5.09562 2.00004C5.16581 1.96009 5.23627 1.9211 5.30709 1.88306C5.37049 1.84925 5.4339 1.81616 5.4973 1.78382C5.56959 1.74737 5.6425 1.71218 5.71574 1.67762C5.77915 1.6475 5.84509 1.61738 5.9104 1.58885C5.9849 1.55715 6.06035 1.52544 6.13581 1.49374C6.20143 1.46679 6.26674 1.44048 6.333 1.41512C6.40972 1.38595 6.48739 1.35869 6.56507 1.33142C6.63133 1.30828 6.69759 1.28513 6.7648 1.26326C6.84374 1.2379 6.92331 1.21444 7.0032 1.19129C7.0701 1.17195 7.13636 1.15198 7.20357 1.13391C7.22925 1.12725 7.25493 1.12186 7.28061 1.1152C6.34219 2.02639 5.64579 3.15725 5.25446 4.40536C4.50198 4.2069 3.77352 3.92656 3.08216 3.56935C3.09262 3.55825 3.1015 3.54716 3.11069 3.53765ZM2.6548 4.04807C3.41635 4.46068 4.22391 4.78208 5.06075 5.0055C4.65051 6.43199 4.43517 7.90742 4.42066 9.39164H0.619454C0.688528 7.4344 1.40427 5.55528 2.6548 4.04807ZM2.6548 15.3693C1.40435 13.862 0.688607 11.9829 0.619454 10.0257H4.42066C4.43517 11.5099 4.65047 12.9854 5.06075 14.4118C4.22395 14.6353 3.41639 14.9567 2.6548 15.3693ZM7.20167 18.2847C7.13763 18.2685 7.07137 18.2476 7.00542 18.2283C6.92521 18.2048 6.84469 18.1813 6.76543 18.1557C6.69854 18.1341 6.63259 18.111 6.56665 18.0878C6.48866 18.0609 6.41067 18.0333 6.33363 18.0038C6.26769 17.9788 6.2027 17.9525 6.13739 17.9258C6.06162 17.8941 5.98585 17.8624 5.91071 17.8307C5.84604 17.8022 5.78168 17.7728 5.71764 17.7426C5.64377 17.7077 5.57022 17.6722 5.49572 17.6354C5.43231 17.6037 5.36891 17.572 5.3055 17.5375C5.23385 17.4991 5.16284 17.4598 5.09182 17.4192C5.02841 17.384 4.96818 17.3479 4.90699 17.3111C4.83724 17.2692 4.76877 17.2261 4.70029 17.1821C4.64005 17.1437 4.57981 17.1047 4.52053 17.0648C4.453 17.0191 4.38611 16.9716 4.31985 16.924C4.26183 16.8825 4.20381 16.8409 4.14675 16.7972C4.08112 16.7477 4.01677 16.6967 3.95273 16.6453C3.89661 16.6006 3.84081 16.5562 3.78597 16.5103C3.72256 16.4576 3.66137 16.4028 3.59987 16.3483C3.54597 16.3004 3.49176 16.2532 3.43913 16.2043C3.37858 16.1479 3.31993 16.0893 3.26096 16.0312C3.20992 15.9808 3.15793 15.9311 3.10784 15.8794C3.09864 15.8696 3.08977 15.8594 3.08057 15.8499C3.7719 15.4925 4.50036 15.2121 5.25287 15.0136C5.64429 16.2616 6.34065 17.3925 7.27902 18.3037C7.25334 18.2971 7.22735 18.2917 7.20167 18.2847ZM9.17202 18.5605C7.81544 18.3678 6.62625 16.9519 5.87806 14.8611C6.95977 14.6189 8.06364 14.4889 9.17202 14.4733V18.5605ZM9.17202 13.8393C7.99623 13.8547 6.82539 13.9944 5.67896 14.2559C5.28089 12.8805 5.0709 11.4575 5.05473 10.0257H9.17202V13.8393ZM9.17202 9.39164H5.05473C5.07086 7.95988 5.28085 6.53689 5.67896 5.16148C6.82539 5.42292 7.99627 5.56257 9.17202 5.57806V9.39164ZM9.17202 4.944C8.0636 4.92854 6.95977 4.7986 5.87806 4.55627C6.62625 2.46544 7.81544 1.04958 9.17202 0.856824V4.944ZM16.3233 4.04807C17.5738 5.55532 18.2895 7.43444 18.3586 9.39164H14.5574C14.5429 7.90742 14.3276 6.43199 13.9174 5.0055C14.7542 4.78196 15.5617 4.4606 16.3233 4.04807ZM11.7739 1.13232C11.8405 1.14881 11.9067 1.16973 11.9727 1.18907C12.0529 1.21253 12.1334 1.23599 12.2127 1.26167C12.2796 1.28323 12.3455 1.30637 12.4114 1.32952C12.4894 1.35647 12.5674 1.38405 12.6445 1.41353C12.7104 1.43858 12.7754 1.46489 12.8407 1.49152C12.9165 1.52322 12.9923 1.55493 13.0674 1.58663C13.1321 1.61516 13.1964 1.64453 13.2605 1.67477C13.3343 1.70964 13.4079 1.74515 13.4824 1.78192C13.5458 1.81363 13.6092 1.84533 13.6726 1.87989C13.7443 1.91825 13.8153 1.95756 13.8863 1.99814C13.9497 2.03333 14.0099 2.06947 14.0711 2.10625C14.1409 2.14809 14.2093 2.19121 14.2778 2.23528C14.3381 2.27364 14.3983 2.31263 14.4576 2.35258C14.5251 2.39823 14.5917 2.44547 14.6579 2.49303C14.7163 2.53456 14.7743 2.5764 14.8317 2.61984C14.897 2.66898 14.961 2.72002 15.0254 2.77138C15.0812 2.81576 15.1373 2.86015 15.1921 2.90643C15.2555 2.95906 15.3167 3.01391 15.3782 3.06844C15.4321 3.11631 15.4863 3.16355 15.539 3.21237C15.5995 3.2688 15.6582 3.32745 15.7171 3.38547C15.7682 3.43588 15.8202 3.48565 15.8703 3.53733C15.8795 3.54716 15.8883 3.5573 15.8975 3.56681C15.2062 3.92419 14.4777 4.20464 13.7252 4.40314C13.3331 3.15491 12.6358 2.02417 11.6965 1.1133C11.7222 1.11996 11.7482 1.12535 11.7739 1.13232ZM9.80608 0.856824C11.1627 1.04958 12.3518 2.46544 13.1 4.55627C12.0183 4.79848 10.9145 4.92842 9.80608 4.944V0.856824ZM9.80608 5.57806C10.9819 5.56261 12.1527 5.42296 13.2991 5.16148C13.6972 6.53689 13.9072 7.95988 13.9234 9.39164H9.80608V5.57806ZM9.80608 10.0257H13.9234C13.9072 11.4575 13.6973 12.8805 13.2991 14.2559C12.1527 13.9944 10.9819 13.8548 9.80608 13.8393V10.0257ZM9.80608 18.5605V14.4733C10.9145 14.4888 12.0183 14.6187 13.1 14.8611C12.3518 16.9519 11.1627 18.3678 9.80608 18.5605ZM15.8674 15.8797C15.8173 15.9314 15.7656 15.9811 15.7146 16.0316C15.6556 16.0896 15.5967 16.1482 15.5361 16.2047C15.4835 16.2538 15.4293 16.2998 15.3754 16.3489C15.3139 16.4034 15.2527 16.458 15.1899 16.5106C15.1344 16.5569 15.078 16.6016 15.0216 16.6466C14.9582 16.6973 14.8948 16.748 14.8295 16.7969C14.7718 16.8403 14.7131 16.8825 14.6541 16.9237C14.5885 16.9706 14.5226 17.0188 14.4557 17.0625C14.3958 17.1031 14.3352 17.1424 14.2743 17.1811C14.2065 17.2249 14.1381 17.2671 14.0692 17.3079C14.0058 17.345 13.9452 17.3812 13.8828 17.417C13.8126 17.4569 13.742 17.4959 13.671 17.534C13.6076 17.5678 13.5442 17.6009 13.4808 17.6332C13.4085 17.6697 13.3356 17.7049 13.2624 17.7394C13.199 17.7695 13.133 17.7996 13.0677 17.8282C12.9932 17.8599 12.9177 17.8916 12.8423 17.9233C12.7767 17.9499 12.7114 17.9765 12.6454 18.0016C12.5681 18.0311 12.4904 18.0587 12.4124 18.0856C12.3465 18.1087 12.2805 18.1319 12.2136 18.1535C12.1344 18.1791 12.0551 18.2026 11.9743 18.2257C11.908 18.2454 11.8414 18.265 11.7745 18.2831C11.7489 18.2898 11.7232 18.2952 11.6975 18.3018C12.6359 17.3906 13.3323 16.2598 13.7236 15.0117C14.4761 15.2101 15.2046 15.4905 15.8959 15.8477C15.8855 15.8591 15.8766 15.8702 15.8674 15.8797ZM16.3233 15.3693C15.5618 14.9567 14.7542 14.6353 13.9174 14.4118C14.3276 12.9854 14.5429 11.5099 14.5574 10.0257H18.3586C18.2896 11.9829 17.5738 13.8621 16.3233 15.3693Z" fill="white"/>
</svg>
