<svg xmlns="http://www.w3.org/2000/svg" viewBox="0 0 500 500"><g id="freepik--background-complete--inject-565"><rect x="411.01" y="138.82" width="19.2" height="79.88" style="fill:#ebebeb"></rect><polygon points="405 142.19 436.22 142.19 420.61 123.86 405 142.19" style="fill:#ebebeb"></polygon><rect x="69.79" y="90.42" width="19.2" height="32.46" style="fill:#ebebeb"></rect><polygon points="63.78 93.79 95 93.79 79.39 75.46 63.78 93.79" style="fill:#ebebeb"></polygon><rect x="379.04" y="108.18" width="19.2" height="32.46" style="fill:#ebebeb"></rect><polygon points="373.03 111.56 404.25 111.56 388.64 93.22 373.03 111.56" style="fill:#ebebeb"></polygon><path d="M87.59,282.51l-13.12.28-6.66.11c-2.23.05-4.47,0-6.7.06h-.44v-.45l-.06-11.19v-.5h.5l13.24.07c4.42,0,8.83.11,13.24.16h.28v.27c0,1.9-.09,3.79-.13,5.66Zm0,0-.14-5.65c0-1.86-.11-3.71-.13-5.54l.27.28c-4.41,0-8.82.15-13.24.16l-13.24.06.5-.5,0,11.19-.45-.44c2.18,0,4.36,0,6.55.05l6.58.11Z" style="fill:#ebebeb"></path><path d="M72.82,296.62l-13.12.28L53,297c-2.23.05-4.47,0-6.7.06H45.9v-.45l-.06-11.19v-.5h.5l13.24.07c4.41,0,8.83.11,13.24.16h.28v.27c0,1.9-.08,3.79-.13,5.66Zm0,0L72.68,291c-.05-1.86-.11-3.71-.13-5.54l.27.28c-4.41.05-8.83.15-13.24.16l-13.24.06.5-.5-.05,11.19-.45-.44c2.18,0,4.36,0,6.55.05l6.58.11Z" style="fill:#ebebeb"></path><path d="M453.66,296.62l-13.13.28-6.66.11c-2.22.05-4.46,0-6.69.06h-.45v-.45l-.05-11.19v-.5h.5l13.24.07c4.41,0,8.83.11,13.24.16h.27v.27c0,1.9-.08,3.79-.13,5.66Zm0,0-.14-5.65c0-1.86-.12-3.71-.13-5.54l.27.28c-4.41.05-8.83.15-13.24.16l-13.24.06.5-.5-.06,11.19-.44-.44c2.18,0,4.36,0,6.54.05l6.58.11Z" style="fill:#ebebeb"></path><path d="M438.89,55.79l-13.13.28-6.66.11c-2.22,0-4.46,0-6.69.06H412v-.45l0-11.19v-.5h.51l13.24.07c4.41,0,8.82.11,13.24.16h.27v.27c0,1.9-.09,3.79-.13,5.66Zm0,0-.14-5.65c-.05-1.86-.12-3.71-.14-5.54l.28.28c-4.42,0-8.83.15-13.24.16l-13.24.06.5-.5-.06,11.19-.44-.44c2.18,0,4.35,0,6.54,0l6.58.11Z" style="fill:#ebebeb"></path><path d="M453.66,69.9l-13.13.28-6.66.11c-2.22,0-4.46,0-6.69.06h-.45V69.9l-.05-11.19v-.5h.5l13.24.07c4.41,0,8.83.11,13.24.16h.27v.27c0,1.9-.08,3.79-.13,5.66Zm0,0-.14-5.65c0-1.86-.12-3.71-.13-5.54l.27.27c-4.41.06-8.83.16-13.24.17l-13.24.06.5-.5-.06,11.19-.44-.44c2.18,0,4.36,0,6.54.05l6.58.11Z" style="fill:#ebebeb"></path><path d="M279.72,340.2l-13.13.28-6.66.12c-2.23,0-4.46,0-6.7,0h-.44v-.45l0-11.18v-.51h.5l13.24.06c4.42,0,8.83.11,13.25.16H280V329c0,1.89-.09,3.78-.13,5.65Zm0,0-.15-5.65c0-1.86-.11-3.7-.13-5.53l.28.27c-4.42,0-8.83.16-13.25.16l-13.24.06.5-.49,0,11.18-.45-.44c2.19,0,4.36,0,6.55.05l6.58.12Z" style="fill:#ebebeb"></path><path d="M294.85,354.31l-13.12.28-6.66.12c-2.23,0-4.47,0-6.7.05h-.44v-.45l-.06-11.19v-.5h.5l13.24.06c4.41,0,8.83.11,13.24.16h.28v.26c0,1.9-.08,3.79-.13,5.66Zm0,0-.14-5.65c0-1.86-.11-3.7-.13-5.54l.27.28c-4.41.05-8.83.16-13.24.16l-13.24.06.5-.5-.05,11.19-.45-.44c2.18,0,4.36,0,6.55.05l6.58.12Z" style="fill:#ebebeb"></path><path d="M264.8,354.31l-13.12.28-6.66.12c-2.23,0-4.46,0-6.7.05h-.44v-.45l-.06-11.19v-.5h.5l13.24.06c4.42,0,8.83.11,13.24.16h.28v.26c0,1.9-.09,3.79-.13,5.66Zm0,0-.14-5.65c0-1.86-.11-3.7-.13-5.54l.27.28c-4.41.05-8.82.16-13.24.16l-13.24.06.5-.5,0,11.19-.45-.44c2.19,0,4.36,0,6.55.05l6.58.12Z" style="fill:#ebebeb"></path><path d="M87.59,55.79l-13.12.28-6.66.11c-2.23,0-4.47,0-6.7.06h-.44v-.45L60.61,44.6v-.5h.5l13.24.07c4.42,0,8.83.11,13.24.16h.28v.27c0,1.9-.09,3.79-.13,5.66Zm0,0-.14-5.65c0-1.86-.11-3.71-.13-5.54l.27.28c-4.41,0-8.82.15-13.24.16l-13.24.06.5-.5,0,11.19-.45-.44c2.18,0,4.36,0,6.55,0l6.58.11Z" style="fill:#ebebeb"></path><rect x="303.07" y="312.09" width="104.03" height="143.97" style="fill:#ebebeb"></rect><rect x="298.03" y="306.74" width="114.11" height="5.34" style="fill:#dbdbdb"></rect><rect x="412.15" y="306.74" width="35.89" height="5.34" style="fill:#ebebeb"></rect><rect x="407.11" y="312.09" width="35.25" height="143.97" style="fill:#dbdbdb"></rect><path d="M395.9,378.71H314.28V332.59H395.9Zm-81.37-.25h81.12V332.84H314.53Z" style="fill:#c7c7c7"></path><rect x="343.7" y="346.07" width="15.89" height="9.13" style="fill:#c7c7c7"></rect><path d="M364.41,354.64H348.27v-8h16.14Zm-15.89-.25h15.64v-7.51H348.52Z" style="fill:#c7c7c7"></path><path d="M395.9,436.67H314.28V390.55H395.9Zm-81.37-.25h81.12V390.8H314.53Z" style="fill:#c7c7c7"></path><rect x="343.7" y="404.03" width="15.89" height="9.13" style="fill:#c7c7c7"></rect><path d="M364.41,412.6H348.27v-8h16.14Zm-15.89-.25h15.64v-7.51H348.52Z" style="fill:#c7c7c7"></path></g><g id="freepik--Floor--inject-565"><polygon points="36.11 456.05 89.58 455.81 143.06 455.72 250 455.55 356.94 455.72 410.42 455.81 463.89 456.05 410.42 456.3 356.94 456.38 250 456.55 143.06 456.38 89.58 456.3 36.11 456.05" style="fill:#263238"></polygon></g><g id="freepik--Window--inject-565"><rect x="113.92" y="54.78" width="272.17" height="196.05" style="fill:#fff"></rect><path d="M386.33,251.09H113.67V54.53H386.33Zm-272.16-.5H385.83V55H114.17Z" style="fill:#c7c7c7"></path><rect x="113.92" y="54.78" width="272.17" height="8.96" style="fill:#37474f"></rect><path d="M121,59.26A2.22,2.22,0,1,1,118.81,57,2.21,2.21,0,0,1,121,59.26Z" style="fill:#c7c7c7"></path><path d="M130.1,59.26A2.22,2.22,0,1,1,127.88,57,2.21,2.21,0,0,1,130.1,59.26Z" style="fill:#fff"></path><path d="M139.17,59.26A2.22,2.22,0,1,1,137,57,2.21,2.21,0,0,1,139.17,59.26Z" style="fill:#4F9CF9"></path><path d="M188.69,153.05a15.79,15.79,0,0,0,14.62,15.75v0h89.44a18.57,18.57,0,0,0,1.74-37A31.28,31.28,0,0,0,233.87,122a18.31,18.31,0,0,0-8.29-2,18.56,18.56,0,0,0-18.53,17.41,15.46,15.46,0,0,0-2.57-.21A15.79,15.79,0,0,0,188.69,153.05Z" style="fill:#4F9CF9"></path><rect x="240.4" y="145.86" width="19.2" height="22.98" style="fill:#fff"></rect><polygon points="234.39 149.23 265.61 149.23 250 130.9 234.39 149.23" style="fill:#fff"></polygon><rect x="197.85" y="192.37" width="104.3" height="7.68" style="fill:#ebebeb"></rect><rect x="198.82" y="193.35" width="2.87" height="5.72" style="fill:#4F9CF9"></rect><rect x="202.48" y="193.35" width="2.87" height="5.72" style="fill:#4F9CF9"></rect><rect x="206.14" y="193.35" width="2.87" height="5.72" style="fill:#4F9CF9"></rect><rect x="209.8" y="193.35" width="2.87" height="5.72" style="fill:#4F9CF9"></rect><rect x="213.45" y="193.35" width="2.87" height="5.72" style="fill:#4F9CF9"></rect><rect x="217.11" y="193.35" width="2.87" height="5.72" style="fill:#4F9CF9"></rect><rect x="220.77" y="193.35" width="2.87" height="5.72" style="fill:#4F9CF9"></rect><rect x="224.43" y="193.35" width="2.87" height="5.72" style="fill:#4F9CF9"></rect><rect x="228.09" y="193.35" width="2.87" height="5.72" style="fill:#4F9CF9"></rect><rect x="231.74" y="193.35" width="2.87" height="5.72" style="fill:#4F9CF9"></rect><rect x="235.4" y="193.35" width="2.87" height="5.72" style="fill:#4F9CF9"></rect><rect x="239.06" y="193.35" width="2.87" height="5.72" style="fill:#4F9CF9"></rect><rect x="242.72" y="193.35" width="2.87" height="5.72" style="fill:#4F9CF9"></rect><rect x="246.38" y="193.35" width="2.87" height="5.72" style="fill:#4F9CF9"></rect><rect x="250.03" y="193.35" width="2.87" height="5.72" style="fill:#4F9CF9"></rect><path d="M237.25,187.07a1.8,1.8,0,0,1-1.81-1.81V183a.34.34,0,0,1,.34-.35.36.36,0,0,1,.36.35v2.23a1.12,1.12,0,1,0,2.23,0V183a.35.35,0,1,1,.69,0v2.23A1.8,1.8,0,0,1,237.25,187.07Z" style="fill:#263238"></path><path d="M242,185.37h-.77v1.36a.35.35,0,0,1-.7,0V183a.35.35,0,0,1,.35-.35H242a1.35,1.35,0,1,1,0,2.69Zm-.77-.7H242a.65.65,0,1,0,0-1.29h-.77Z" style="fill:#263238"></path><path d="M244.2,186.73V183a.35.35,0,1,1,.69,0v3.35h1.7a.35.35,0,0,1,.35.35.35.35,0,0,1-.35.34h-2.05A.34.34,0,0,1,244.2,186.73Z" style="fill:#263238"></path><path d="M250.94,183.23a2.28,2.28,0,0,1,.64,1.58,2.31,2.31,0,0,1-.64,1.59,2,2,0,0,1-1.5.67,2.09,2.09,0,0,1-1.53-.67,2.29,2.29,0,0,1-.62-1.59,2.26,2.26,0,0,1,.62-1.58,2.05,2.05,0,0,1,1.53-.67A2,2,0,0,1,250.94,183.23Zm-.08,1.58a1.64,1.64,0,0,0-.42-1.09,1.35,1.35,0,0,0-1-.45,1.33,1.33,0,0,0-1,.45,1.55,1.55,0,0,0-.43,1.09,1.52,1.52,0,0,0,.43,1.09,1.34,1.34,0,0,0,1,.46,1.36,1.36,0,0,0,1-.46A1.6,1.6,0,0,0,250.86,184.81Z" style="fill:#263238"></path><path d="M254.8,186h-1.52l-.31.81a.35.35,0,0,1-.32.22l-.12,0a.35.35,0,0,1-.21-.45l1.38-3.69a.35.35,0,0,1,.34-.22.34.34,0,0,1,.33.22l1.39,3.69a.36.36,0,0,1-.21.45l-.12,0a.33.33,0,0,1-.32-.22Zm-.25-.69L254,184l-.51,1.35Z" style="fill:#263238"></path><path d="M256.62,186.73V183a.34.34,0,0,1,.34-.35h.74a2.2,2.2,0,0,1,0,4.39H257A.34.34,0,0,1,256.62,186.73Zm.69-.35h.39a1.5,1.5,0,0,0,1.49-1.51,1.49,1.49,0,0,0-1.49-1.49h-.39Z" style="fill:#263238"></path><path d="M261.2,186.18a.47.47,0,1,1-.46.47A.47.47,0,0,1,261.2,186.18Z" style="fill:#263238"></path><path d="M262.65,186.18a.47.47,0,1,1,0,.94.47.47,0,1,1,0-.94Z" style="fill:#263238"></path><path d="M264.09,186.18a.47.47,0,1,1,0,.94.47.47,0,0,1,0-.94Z" style="fill:#263238"></path></g><g id="freepik--Files--inject-565"><rect x="338.64" y="214.96" width="92.05" height="66.73" style="fill:#4F9CF9"></rect><polygon points="371.17 208.05 338.64 208.05 338.64 214.96 373.03 214.96 371.17 208.05" style="fill:#4F9CF9"></polygon><g style="opacity:0.2"><rect x="338.64" y="214.96" width="92.05" height="66.73"></rect><polygon points="371.17 208.05 338.64 208.05 338.64 214.96 373.03 214.96 371.17 208.05"></polygon></g><rect x="341.84" y="210.14" width="26.6" height="4.02" style="fill:#fff"></rect><rect x="373.08" y="177.19" width="55.07" height="55.07" transform="translate(700.68 -130.49) rotate(104.77)" style="fill:#455a64"></rect><path d="M391.91,217.64a4.8,4.8,0,1,1-3.29-5.93A4.79,4.79,0,0,1,391.91,217.64Z" style="fill:#fff"></path><rect x="391.65" y="193.44" width="3.66" height="24.1" transform="matrix(0.96, 0.27, -0.27, 0.96, 71.61, -100.2)" style="fill:#fff"></rect><path d="M408.75,215.19a4.79,4.79,0,1,1-3.29-5.92A4.8,4.8,0,0,1,408.75,215.19Z" style="fill:#fff"></path><rect x="408.48" y="191" width="3.66" height="24.1" transform="translate(71.57 -104.9) rotate(15.94)" style="fill:#fff"></rect><polygon points="415.38 192.02 394.14 196.5 395.03 193.4 416.26 188.92 415.38 192.02" style="fill:#fff"></polygon><polygon points="413.71 197.86 392.48 202.34 393.36 199.24 414.59 194.76 413.71 197.86" style="fill:#fff"></polygon><polygon points="430.45 281.69 338.4 281.69 331.3 220.5 423.35 220.5 430.45 281.69" style="fill:#4F9CF9"></polygon><polygon points="363.09 214.16 330.56 214.16 331.3 220.5 365.69 220.5 363.09 214.16" style="fill:#4F9CF9"></polygon><polygon points="346.5 145.3 296.37 160.82 276.44 96.46 313.67 84.93 330.38 93.2 346.5 145.3" style="fill:#ebebeb"></polygon><polygon points="313.67 84.93 330.38 93.2 317.46 97.19 313.67 84.93" style="fill:#dbdbdb"></polygon><rect x="284.28" y="101.39" width="29.18" height="1.73" transform="translate(614.61 111.54) rotate(162.8)" style="fill:#dbdbdb"></rect><rect x="285.57" y="105.56" width="29.18" height="1.73" transform="translate(618.37 119.31) rotate(162.8)" style="fill:#dbdbdb"></rect><rect x="286.86" y="109.73" width="29.18" height="1.73" transform="translate(622.13 127.09) rotate(162.8)" style="fill:#dbdbdb"></rect><rect x="287.85" y="111.9" width="42.76" height="1.73" transform="translate(637.97 129.02) rotate(162.8)" style="fill:#dbdbdb"></rect><rect x="289.14" y="116.07" width="42.76" height="1.73" transform="translate(641.73 136.79) rotate(162.8)" style="fill:#dbdbdb"></rect><rect x="290.43" y="120.24" width="42.76" height="1.73" transform="translate(645.49 144.57) rotate(162.8)" style="fill:#dbdbdb"></rect><rect x="291.72" y="124.41" width="42.76" height="1.73" transform="translate(649.25 152.34) rotate(162.8)" style="fill:#dbdbdb"></rect><rect x="293.01" y="128.58" width="42.76" height="1.73" transform="translate(653.01 160.12) rotate(162.8)" style="fill:#dbdbdb"></rect><rect x="294.31" y="132.75" width="42.76" height="1.73" transform="translate(656.77 167.89) rotate(162.8)" style="fill:#dbdbdb"></rect><rect x="295.6" y="136.92" width="42.76" height="1.73" transform="translate(660.52 175.66) rotate(162.8)" style="fill:#dbdbdb"></rect><rect x="296.89" y="141.1" width="42.76" height="1.73" transform="translate(664.28 183.44) rotate(162.8)" style="fill:#dbdbdb"></rect><rect x="298.18" y="145.27" width="42.76" height="1.73" transform="translate(668.04 191.21) rotate(162.8)" style="fill:#dbdbdb"></rect><rect x="349.15" y="129.2" width="47.76" height="56.3" transform="translate(448.17 -240.48) rotate(77.82)" style="fill:#4F9CF9"></rect><polygon points="371.47 168.39 402.76 161.64 382.95 145.74 371.47 168.39" style="fill:#4F9CF9"></polygon><g style="opacity:0.30000000000000004"><polygon points="371.47 168.39 402.76 161.64 382.95 145.74 371.47 168.39" style="fill:#fff"></polygon></g><polygon points="356.07 171.73 383.82 165.74 367.24 156.18 356.07 171.73" style="fill:#4F9CF9"></polygon><g style="opacity:0.5"><polygon points="356.07 171.73 383.82 165.74 367.24 156.18 356.07 171.73" style="fill:#fff"></polygon></g><rect x="348.5" y="167.43" width="56.3" height="13.42" transform="translate(-28.25 83.35) rotate(-12.18)" style="fill:#4F9CF9"></rect><g style="opacity:0.5"><rect x="348.5" y="167.43" width="56.3" height="13.42" transform="translate(-28.25 83.35) rotate(-12.18)" style="fill:#fff"></rect></g><path d="M354.37,157.1a4.34,4.34,0,1,0-4.05-2.61A4.34,4.34,0,0,0,354.37,157.1Z" style="fill:#fff;opacity:0.9"></path></g><g id="freepik--Character--inject-565"><polygon points="156.69 325.34 159.48 342.1 178.41 456.05 181.46 456.05 167.69 342.1 165.66 325.34 156.69 325.34" style="fill:#dbdbdb"></polygon><polygon points="165.66 325.34 156.69 325.34 159.48 342.1 167.69 342.1 165.66 325.34" style="fill:#a6a6a6"></polygon><polygon points="97.27 456.05 100.32 456.05 119.24 342.1 122.03 325.34 113.06 325.34 111.03 342.1 97.27 456.05" style="fill:#dbdbdb"></polygon><polygon points="113.06 325.34 111.03 342.1 119.24 342.1 122.03 325.34 113.06 325.34" style="fill:#a6a6a6"></polygon><polygon points="40.51 456.05 43.56 456.05 62.48 342.1 65.28 325.34 56.3 325.34 54.27 342.1 40.51 456.05" style="fill:#dbdbdb"></polygon><polygon points="54.27 342.1 62.48 342.1 65.28 325.34 56.3 325.34 54.27 342.1" style="fill:#a6a6a6"></polygon><polygon points="45.35 333.21 184 333.21 184 318.6 132.1 318.6 114.65 217.11 50.63 217.11 45.35 333.21" style="fill:#dbdbdb"></polygon><polygon points="45.35 333.21 52.91 333.21 57.83 217.11 50.63 217.11 45.35 333.21" style="fill:#a6a6a6"></polygon><path d="M183.69,457.71c-2.51.24-70.8-16.1-72.95-18.32-.26-.24,1.09-6.45,3.07-14.91l0-.17C115.08,419,135,375.56,135,375.56L179.28,388,159.13,428.2s8.32,6,15.46,11.74c0,0,0,0,0,0,4.41,3.51,8.21,6.66,9,7.69C185.71,450.32,186.19,457.5,183.69,457.71Z" style="fill:#d3766a"></path><path d="M183.68,457.71c-2.5.24-70.79-16.1-72.94-18.31-.26-.26,1.09-6.45,3.07-14.92l0-.16c.45-2,3.52-9.3,7.18-17.65,7.28,2,33.39,9.05,42.88,12l-4.78,9.54s8.33,6,15.47,11.75a0,0,0,0,1,0,0c4.4,3.51,8.21,6.67,9,7.68C185.71,450.33,186.19,457.5,183.68,457.71Z" style="fill:#fff"></path><path d="M183.91,458c-2.58.22-70.92-16.31-73.12-18.58-.84-.86.68-11.65,4.43-23.07l44,10.71s22.49,17.83,24.64,20.59S186.49,457.82,183.91,458Z" style="fill:#4F9CF9"></path><path d="M183.59,455.07C172.2,452,126,440.78,114.5,438.63c-.09,0-.11.05,0,.07C125.7,442,172,452.83,183.55,455.26,183.79,455.31,183.83,455.13,183.59,455.07Z" style="fill:#263238"></path><path d="M180.1,444.17a9.46,9.46,0,0,0-7.53,1.14,9.15,9.15,0,0,0-4,5.49c0,.07.11.1.14,0a10.93,10.93,0,0,1,11.39-6.53A.07.07,0,1,0,180.1,444.17Z" style="fill:#263238"></path><path d="M162.58,429.11c-4.57-1.17-10.28-.84-14,2.23-.15.11,0,.32.18.28a65.37,65.37,0,0,1,13.79-1.92A.3.3,0,0,0,162.58,429.11Z" style="fill:#263238"></path><path d="M165.79,431.35c-4.57-1.17-10.28-.84-14,2.22-.14.12,0,.32.18.29a64.83,64.83,0,0,1,13.8-1.93A.3.3,0,0,0,165.79,431.35Z" style="fill:#263238"></path><path d="M169,433.59c-4.57-1.18-10.28-.84-14,2.22-.15.12,0,.32.18.28a65.37,65.37,0,0,1,13.79-1.92A.29.29,0,0,0,169,433.59Z" style="fill:#263238"></path><path d="M172.2,435.82c-4.57-1.17-10.28-.84-14,2.22-.14.12,0,.33.18.29a64.82,64.82,0,0,1,13.8-1.92A.3.3,0,0,0,172.2,435.82Z" style="fill:#263238"></path><path d="M120.05,428.46c-5.15-1.23-7.07,6.77-1.91,8S125.21,429.69,120.05,428.46Z" style="fill:#263238"></path><path d="M170.49,418.08c-1.85-2.49-5.23-1.31-7.14.34a24.82,24.82,0,0,0-7,10.72c0,.09,0,.15.12.16a.57.57,0,0,0,.73.57c3.81-1.47,8.07-2.57,11.31-5.16C170.4,423.2,172.25,420.43,170.49,418.08Zm-8,8.38c-1.85.77-3.74,1.44-5.57,2.28,1.38-2.09,2.65-4.22,4.23-6.17a28.12,28.12,0,0,1,2.42-2.69c1.37-1.27,6.79-4,6,1.08C169.22,423.77,164.72,425.55,162.51,426.46Z" style="fill:#263238"></path><path d="M144.54,428.08c3.85,1.58,8.24,1.44,12.31,1.78a.57.57,0,0,0,.54-.75c.07,0,.12-.11.06-.19a24.73,24.73,0,0,0-9.72-8.33c-2.3-1-5.88-1.22-7,1.68S142.3,427.16,144.54,428.08Zm-2.13-3.28c-2.16-4.68,3.82-3.57,5.49-2.73A27.12,27.12,0,0,1,151,424c2.06,1.42,3.88,3.12,5.79,4.73-2-.29-4-.4-6-.62C148.4,427.82,143.59,427.38,142.41,424.8Z" style="fill:#263238"></path><path d="M164.14,424.52,116.72,410.3s39.09-81.45,37.85-85.59c-.82-2.77-59.42-3-76.59-18.38C60.2,290.36,74,259,74,259l49.27-.25s-.85,10.28,1,11.88c1.24,1.07,68.6,7,81.5,31.76C217.55,324.88,164.14,424.52,164.14,424.52Z" style="fill:#263238"></path><path d="M154.58,324.7c.21.7-.74,3.63-2.48,8l35.41,43.5c12.63-28.78,24.5-62,18.34-73.81-12.91-24.76-80.26-30.69-81.51-31.76-1.87-1.6-1-11.88-1-11.88L92,258.92l52,63.84C150.27,323.44,154.36,324,154.58,324.7Z" style="fill:#263238"></path><path d="M165.32,414.49a30,30,0,0,0-3.87-1.44c-1.37-.46-2.73-.93-4.11-1.38-2.7-.87-5.42-1.7-8.16-2.47-5.5-1.56-11-3.09-16.56-4.5-2.9-.73-9.09-2.33-9.47-2.27-.19,0-.23.33-.07.39,5.36,1.92,10.81,3.56,16.25,5.22s10.87,3.3,16.38,4.69c1.53.38,3.06.72,4.59,1.09a33.61,33.61,0,0,0,4.88,1C165.33,414.88,165.49,414.58,165.32,414.49Z" style="fill:#455a64"></path><path d="M76.69,268.4c.15-1.65.33-3.29.52-4.93,0-.19.32-.19.3,0-.66,6.67-1.33,13.49-.1,20.13a28.58,28.58,0,0,0,8.8,15.94c9.77,9.12,23.44,11.8,36.17,14,7.3,1.24,14.63,2.19,22,2.92,3.6.35,7.22.64,10.83.86s7.18.26,10.76.46c1.13.06,2.15.58,2,1.88a9.4,9.4,0,0,1-.86,2.26c-.38.87-.77,1.74-1.16,2.61q-2.14,4.88-4.33,9.75-4.5,10-9.13,20-9.18,19.82-19.06,39.3-1.22,2.42-2.45,4.83c0,.1-.21,0-.16-.1q9.44-19.73,18.63-39.57,4.56-9.84,9.09-19.71,2.25-4.93,4.48-9.88l2.22-4.95,1.11-2.47c.3-.69,1.42-2.34.65-3-.51-.43-1.58-.28-2.2-.3l-2.86-.09c-1.81-.06-3.62-.13-5.43-.22q-5.49-.28-11-.76-10.74-.93-21.4-2.67c-12.65-2-26.41-4.33-36.54-12.82a30.46,30.46,0,0,1-9.72-14.17C75.91,281.47,76.1,274.82,76.69,268.4Z" style="fill:#455a64"></path><path d="M287.87,395.28c-1.78,1.79-64.8,32.75-67.87,32.41-.36,0-3.28-5.66-7.15-13.44l-.08-.16c-2.47-4.92-24.89-46.32-24.89-46.32l39.21-19.85,23,40.29s10.26-.67,19.4-.81h0c5.63-.1,10.57-.1,11.84.18C284.71,388.3,289.66,393.52,287.87,395.28Z" style="fill:#d3766a"></path><path d="M287.87,395.28c-1.78,1.78-64.8,32.75-67.88,32.41-.35,0-3.27-5.66-7.14-13.44l-.08-.15-.53-1q-.18-.37-.39-.75l-.59-1.11c-1.71-3.23-4.51-8.47-7.6-14.21l40-20.15,6.49,11.37s10.26-.66,19.4-.82h0c5.63-.1,10.58-.1,11.84.18C284.71,388.3,289.66,393.52,287.87,395.28Z" style="fill:#fff"></path><path d="M288.25,395.39c-1.85,1.82-65,32.67-68.18,32.32-1.19-.12-6.9-9.4-11.29-20.6l40.75-19.84s28.69-.6,32.11.15S290.09,393.58,288.25,395.39Z" style="fill:#4F9CF9"></path><path d="M286.11,393.31c-10.72,4.91-53.48,25.73-63.7,31.4-.08,0-.06.1,0,.06,10.73-4.63,53.32-25.8,63.75-31.29C286.41,393.36,286.33,393.2,286.11,393.31Z" style="fill:#263238"></path><path d="M276.47,387.14a9.43,9.43,0,0,0-5.08,5.68,9.18,9.18,0,0,0,.4,6.81c0,.06.15,0,.12-.07a11,11,0,0,1,4.62-12.29C276.61,387.22,276.55,387.1,276.47,387.14Z" style="fill:#263238"></path><path d="M253.37,386.71c-4.26,2-8.45,5.91-9.39,10.66,0,.19.23.24.32.11a65,65,0,0,1,9.4-10.28A.3.3,0,0,0,253.37,386.71Z" style="fill:#263238"></path><path d="M257.27,386.39c-4.27,2-8.45,5.91-9.39,10.66,0,.19.22.23.32.11a64.51,64.51,0,0,1,9.4-10.28A.3.3,0,0,0,257.27,386.39Z" style="fill:#263238"></path><path d="M261.16,386.07c-4.26,2-8.45,5.91-9.39,10.66,0,.18.23.23.32.11a65,65,0,0,1,9.4-10.28A.3.3,0,0,0,261.16,386.07Z" style="fill:#263238"></path><path d="M265.06,385.75c-4.27,2-8.45,5.9-9.39,10.66,0,.18.22.23.32.1a65.38,65.38,0,0,1,9.4-10.28A.29.29,0,0,0,265.06,385.75Z" style="fill:#263238"></path><path d="M220.2,413.33c-4.75,2.34-1.13,9.72,3.63,7.38S225,411,220.2,413.33Z" style="fill:#263238"></path><path d="M252.43,373.17c-3-.73-4.87,2.32-5.29,4.82a24.85,24.85,0,0,0,1.44,12.72.12.12,0,0,0,.19.05.58.58,0,0,0,.93,0c2-3.56,4.58-7.12,5.43-11.18C255.62,377.17,255.28,373.86,252.43,373.17Zm-.8,11.55c-.94,1.77-2,3.49-2.84,5.3-.27-2.48-.65-4.94-.68-7.45a25.59,25.59,0,0,1,.16-3.61c.23-1.85,2.66-7.43,5.34-3C255.08,378.37,252.75,382.6,251.63,384.72Z" style="fill:#263238"></path><path d="M238.82,397.42c4-1.23,7.26-4.14,10.61-6.48a.57.57,0,0,0-.06-.92c0-.08,0-.16-.07-.19a24.8,24.8,0,0,0-12.8-.21c-2.44.66-5.31,2.8-4.29,5.73C233.17,398.12,236.5,398.14,238.82,397.42Zm-3.74-1.16c-4.64-2.24.67-5.19,2.49-5.61a25.48,25.48,0,0,1,3.58-.5,71.8,71.8,0,0,1,7.48,0c-1.72,1-3.33,2.22-5,3.33C241.63,394.76,237.64,397.49,235.08,396.26Z" style="fill:#263238"></path><path d="M249.94,381.69l-47.28,23.63s-36.9-75-40.95-79.86C156.31,319,86,328.11,69.44,307.3,52.29,285.78,67,259.05,67,259.05l53.5,0s.16,5.94-2.92,14.62c0,0,61.18-3.64,78.5,13.19C209.36,299.73,249.94,381.69,249.94,381.69Z" style="fill:#263238"></path><path d="M107.81,279a91.41,91.41,0,0,1,8.52-5.2,35.06,35.06,0,0,1,6.44-2.61c1.56-.38,2.25-.49.78.2l-3.93,1.87.83,0,3.15-.12c2.06-.05,4.12,0,6.18-.05,4.17,0,8.31.37,12.47.58.11,0,.11.18,0,.17-4.16-.13-8.33.09-12.49.07-2.06,0-4.12,0-6.18.09l-3,.05a24.28,24.28,0,0,1-2.56,0l-1.15.54c-3,1.43-6,2.91-9,4.56C107.82,279.2,107.73,279.09,107.81,279Z" style="fill:#455a64"></path><path d="M121.76,257c-.55,2.53-1,5.07-1.65,7.58-.29,1.14-.57,2.31-1,3.43-.34,1-.85,2-1.92,2.27-1.24.29-1.63-.77-1.56-1.8a33.19,33.19,0,0,1,.52-3.44c.21-1.31.43-2.62.63-3.93.09-.66.19-1.31.28-2,0-.16.1-1.42.18-1.78,0,0,0,.06.07.05h0a.09.09,0,0,0,.08-.06c0-.1,0-.12-.07-.19a.09.09,0,0,0-.11,0c-.24.14-.24.46-.31.7-.18.64-.37,1.28-.53,1.93q-.47,1.81-.87,3.63c-.26,1.22-.52,2.43-.77,3.65a5.51,5.51,0,0,0-.15,2.79,2.12,2.12,0,0,0,2,1.54l-.13.24c-.1.25-.17.52-.25.78a7.15,7.15,0,0,0-.23.79,2.44,2.44,0,0,0-.06.39c0,.14,0,.28,0,.43s.29.35.39.13a3.13,3.13,0,0,1,.22-.36,2,2,0,0,0,.17-.43c.07-.25.14-.5.19-.76s.13-.51.17-.77,0-.31,0-.46a2.94,2.94,0,0,0,1.42-.6,4.81,4.81,0,0,0,1.42-2.34c.34-1.05.6-2.14.86-3.22a47.57,47.57,0,0,0,1.32-8.12C122.23,256.81,121.82,256.71,121.76,257Z" style="fill:#455a64"></path><path d="M96,264.2c-.19,1.25-.29,2.51-.53,3.75s-.53,2.43-.89,3.62a12.73,12.73,0,0,1-1.42,3.28,11.82,11.82,0,0,1-2.34,2.55A21.1,21.1,0,0,1,85,280.88a28.51,28.51,0,0,1-3.24,1.06c-.57.15-1.15.27-1.73.37a3.73,3.73,0,0,0-1.4.37.29.29,0,0,0,0,.49,5.13,5.13,0,0,0,2.61,0,19.9,19.9,0,0,0,2.76-.58,20.3,20.3,0,0,0,5.18-2.39,16.74,16.74,0,0,0,4.26-3.74,12.43,12.43,0,0,0,2.18-5.22,25.46,25.46,0,0,0,.53-7A.12.12,0,0,0,96,264.2Z" style="fill:#455a64"></path><path d="M240.34,373.09a28.86,28.86,0,0,0-3.8,1.61c-1.31.6-2.63,1.2-3.93,1.82-2.56,1.23-5.11,2.49-7.63,3.8-5.07,2.65-10.13,5.33-15.13,8.11-2.61,1.45-8.21,4.54-8.45,4.84s.07.4.23.33c5.21-2.28,10.29-4.82,15.39-7.35s10.17-5.07,15.13-7.84c1.37-.77,2.72-1.58,4.09-2.36a35.06,35.06,0,0,0,4.26-2.59C240.62,373.36,240.53,373,240.34,373.09Z" style="fill:#455a64"></path><path d="M67,271.49a.18.18,0,0,1,.36,0c-.1,11.62,1.69,24.61,10.63,32.94,9.81,9.14,23.95,10.23,36.68,10.12,7.31-.06,14.61-.25,21.91,0s14.76.59,22.05,1.52a12,12,0,0,1,7.48,3.58,38.68,38.68,0,0,1,5,7.13q5.52,9.14,10.68,18.47,10.28,18.56,19,37.9,1.08,2.4,2.15,4.81c0,.1-.11.19-.16.08q-8.88-19.4-19.11-38.13-5.08-9.37-10.54-18.55c-1.7-2.88-3.35-5.82-5.26-8.57-1.68-2.43-3.78-4.72-6.69-5.6a27,27,0,0,0-5.44-.79c-1.87-.17-3.74-.33-5.61-.46q-5.46-.4-10.94-.6c-7.36-.27-14.72-.18-22.09,0-12.79.23-26.76-.21-37.37-8.35a30.15,30.15,0,0,1-9.85-13.76A54.14,54.14,0,0,1,67,275.88C67,274.42,67,273,67,271.49Z" style="fill:#455a64"></path><path d="M143.6,322.38c2.61,0,5.22.15,7.82.24a30.53,30.53,0,0,1,6.48.58c2,.49,3.54.73,5.16,2.94,2,2.76,13,24,17.61,33.37,1.28,2.61,2.55,5.22,3.79,7.84s2.41,5.49,3.68,8.2a.09.09,0,0,1-.15.08c-1.13-2.26-2.38-4.47-3.55-6.72s-2.3-4.52-3.44-6.79q-3.42-6.87-6.87-13.73c-2.29-4.54-5.06-9-7.38-13.47-1.94-3.8-4.6-9-6.45-9.75a30.68,30.68,0,0,0-8.08-2c-2.88-.2-5.75-.38-8.63-.63A.1.1,0,1,1,143.6,322.38Z" style="fill:#455a64"></path><path d="M100,156.25c-9.65,8.27-7,20.34-11,26.88-2.46,4-10.49,8.23-12.08,12.84-2.63,7.58,3.8,10.3,2.36,14.42-2,5.83-9.85,5.38-11.25,14.92s9.09,19.7,34,22.45,38.62-6.37,39.51-14.47-7.4-10.8-8-16.84c-.36-3.87,4.76-6.56,5-13.67s-6.68-9.43-7.67-15.47,2.21-20.72-6.67-28.21S104.71,152.16,100,156.25Z" style="fill:#263238"></path><path d="M101.07,156.46a20.65,20.65,0,0,0-6.41,7.39,45.08,45.08,0,0,0-3.56,9.8,26.77,26.77,0,0,1-1.94,5.87,15.13,15.13,0,0,1-3.34,4.13c-2.7,2.44-5.92,4.29-8.34,7s-4.08,6.07-3.16,9.61c.5,1.92,1.76,3.49,2.55,5.28s1,3.82-.41,5.23c-1.25,1.21-3,1.76-4.47,2.75a15.84,15.84,0,0,0-3.64,3.53,12.18,12.18,0,0,0-2.29,9.58c1.47,7.76,8.74,12.17,15.46,15,.93.38,1.87.76,2.82,1.13.14.06.27-.15.12-.21-6.74-3-14.57-6.56-17.15-14.1a11.34,11.34,0,0,1,1.16-10A14.43,14.43,0,0,1,72,214.68c1.35-1,2.92-1.61,4.3-2.57A4.59,4.59,0,0,0,78.45,208a11.37,11.37,0,0,0-1.86-5A9.22,9.22,0,0,1,75,197.84a9.94,9.94,0,0,1,2-5c2.09-3,5.2-4.92,8-7.17a16.74,16.74,0,0,0,6.07-8.39c.52-1.78.84-3.61,1.28-5.4A49.13,49.13,0,0,1,93.82,167a23.47,23.47,0,0,1,5.27-8.68,12.78,12.78,0,0,1,2.06-1.69C101.23,156.54,101.15,156.41,101.07,156.46Z" style="fill:#263238"></path><path d="M142.62,227.35a9.31,9.31,0,0,0-1.73-3.63c-.86-1.1-1.91-2-2.87-3a7.16,7.16,0,0,1-2-3.36,6.74,6.74,0,0,1,1.1-4.5,34.83,34.83,0,0,0,2.23-4.34,15.59,15.59,0,0,0-1.56-13.92c-.85-1.39-1.81-2.71-2.67-4.1a20.38,20.38,0,0,1-2.21-4.84c-1.12-3.75-1.36-7.71-2.28-11.51a59.11,59.11,0,0,0-4-11.31c0-.09-.17,0-.13.08A51.3,51.3,0,0,1,130,173.1c.79,3.33,1.1,6.73,1.69,10.1a24.81,24.81,0,0,0,1.26,4.86,26.89,26.89,0,0,0,2.16,4.16c1.69,2.75,3.43,5.46,3.89,8.72a15.24,15.24,0,0,1-1.6,9.33c-1.31,2.48-3.15,5.21-2,8.11,1,2.46,3.31,3.93,4.86,6a9.83,9.83,0,0,1,1.69,7.88c-1.34,7-8.34,10.44-14.88,10.79a.16.16,0,0,0,0,.32c5.7-.07,11.89-2.57,14.56-7.9A12,12,0,0,0,142.62,227.35Z" style="fill:#263238"></path><path d="M104.19,206.66c2.38,9.79,18,44,23.5,47.71,6.41,4.29,40.36,21.45,46.77,19.38,2.21-.72,11.7-24.41,7.44-26.25-13-5.64-37.52-9.89-41-12.91-2.29-2-16.14-18.18-28.84-31.78C107.28,197.67,102.66,200.34,104.19,206.66Z" style="fill:#d3766a"></path><path d="M102.38,206.06c1.2,6.35,6.71,18.4,6.71,18.4l23.84-4s-13.73-15.83-23.77-21.38C105.13,196.88,101.17,199.63,102.38,206.06Z" style="fill:#4F9CF9"></path><path d="M102.38,206.06c1.2,6.35,6.71,18.4,6.71,18.4l23.84-4s-13.73-15.83-23.77-21.38C105.13,196.88,101.17,199.63,102.38,206.06Z" style="fill:#4F9CF9"></path><path d="M109.82,212a1.83,1.83,0,1,1-1.83-1.83A1.82,1.82,0,0,1,109.82,212Z" style="fill:#fff"></path><path d="M108.72,221.21c3.5-.82,7-1.59,10.55-2.21q2.64-.47,5.31-.84c1.78-.25,3.58-.32,5.35-.6.1,0,.11.14,0,.15-1.78.18-3.55.61-5.32.89l-5.31.88c-3.53.6-7.07,1.2-10.59,1.88C108.63,221.38,108.62,221.23,108.72,221.21Z" style="fill:#263238"></path><path d="M127.62,221.38l-18.54,3.08s-5.5-12.05-6.69-18.41c-.61-3.27.11-5.59,1.51-6.79Z" style="opacity:0.1"></path><path d="M122.65,268.19l-64.82,2.13s19.67-56.45,33.92-69.93c6.49-6.13,12.38-4.78,17.16-.28,1.2,1.12,15.58,21.87,16.48,28.85.8,6.16-4.57,12.63-4.57,12.63Z" style="fill:#4F9CF9"></path><path d="M75.9,229.26a1.83,1.83,0,0,1-1.83,1.83,1.42,1.42,0,0,1-.5-.08c.5-1.1,1-2.19,1.51-3.27A1.79,1.79,0,0,1,75.9,229.26Zm20.78-1.83a1.83,1.83,0,1,0,1.83,1.83A1.83,1.83,0,0,0,96.68,227.43Zm22.62,0a1.83,1.83,0,1,0,1.82,1.83A1.83,1.83,0,0,0,119.3,227.43ZM85.38,210.14A1.83,1.83,0,1,0,87.21,212,1.83,1.83,0,0,0,85.38,210.14Zm22.61,0a1.83,1.83,0,1,0,1.83,1.83A1.83,1.83,0,0,0,108,210.14ZM74.07,262.79a1.83,1.83,0,1,0,1.83,1.83A1.83,1.83,0,0,0,74.07,262.79Zm22.61,0a1.83,1.83,0,1,0,1.83,1.83A1.83,1.83,0,0,0,96.68,262.79Zm22.62,0a1.83,1.83,0,1,0,1.82,1.83A1.83,1.83,0,0,0,119.3,262.79ZM85.38,245.5a1.83,1.83,0,1,0,1.83,1.83A1.83,1.83,0,0,0,85.38,245.5Zm22.61,0a1.83,1.83,0,1,0,1.83,1.83A1.83,1.83,0,0,0,108,245.5Z" style="fill:#fff"></path><path d="M116.83,241.52a17.9,17.9,0,0,0-3.94-.12,16.69,16.69,0,0,0-1.85.23c-.69.14-1.36.33-2,.48-.12,0-.06.19,0,.17a17.56,17.56,0,0,1,2.06-.25c.62-.05,1.24-.13,1.87-.18,1.28-.09,2.56-.18,3.84-.24C116.87,241.6,116.88,241.53,116.83,241.52Z" style="fill:#263238"></path><path d="M117.37,238.74a35.82,35.82,0,0,0-8.61,1.38c-2.91.85-5.82,2-8.84,2.34-.12,0-.11.2,0,.19,1.45-.16,2.89-.32,4.33-.55s2.86-.58,4.28-.89c3-.66,5.84-1.77,8.85-2.24A.12.12,0,0,0,117.37,238.74Z" style="fill:#263238"></path><path d="M97.88,198.3c0,1.18,3.5,9.71,8.64,10.74,1.67.33,3.89-8.73,3.89-8.73l.32-.63,4.42-8.85L105.91,181l-1.36-1.33s-1,2.5-2.33,5.63c-.06.14-.12.28-.18.44s-.15.34-.22.51l-.58,1.41c-.14.37-.29.72-.43,1.1s-.28.76-.43,1.15A65.49,65.49,0,0,0,97.88,198.3Z" style="fill:#d3766a"></path><path d="M102.22,185.34a19.85,19.85,0,0,0,8.51,14.34l4.42-8.85L105.91,181l-1.36-1.33S103.5,182.21,102.22,185.34Z" style="fill:#263238"></path><path d="M132.45,180.58c-3.51,17-14.08,16.81-17.75,16-3.32-.69-14.56-3.46-12.83-20.73s10.75-21,18.44-19.83S136,163.58,132.45,180.58Z" style="fill:#d3766a"></path><path d="M125.77,193.77a11.4,11.4,0,0,0,1.91-2.08,19.1,19.1,0,0,0,1.51-2.38,26.7,26.7,0,0,0,2.13-5.23,43,43,0,0,0,1.28-5.5l.39-2.82.29-2.83,0,2.85-.26,2.85a36.92,36.92,0,0,1-1.18,5.6,24.52,24.52,0,0,1-2.27,5.26A13.46,13.46,0,0,1,125.77,193.77Z" style="fill:#263238"></path><path d="M131,175.59c-.39-.14-.72-.33-1.09-.5a1.91,1.91,0,0,1-1-.73.62.62,0,0,1,.17-.73,1.51,1.51,0,0,1,1.55,0,2.25,2.25,0,0,1,1.2,1.09A.66.66,0,0,1,131,175.59Z" style="fill:#263238"></path><path d="M119.07,174.45c.41,0,.79,0,1.2,0a2,2,0,0,0,1.22-.21.6.6,0,0,0,.17-.73,1.53,1.53,0,0,0-1.39-.69,2.21,2.21,0,0,0-1.55.46A.66.66,0,0,0,119.07,174.45Z" style="fill:#263238"></path><path d="M120.8,179.22c0-.05-.11,0-.11.08-.2,1.17-.63,2.47-1.76,2.64,0,0,0,.06,0,.06C120.25,182.08,120.79,180.35,120.8,179.22Z" style="fill:#263238"></path><path d="M120,177.8c-1.83-.53-2.74,3.18-1.05,3.66S121.55,178.23,120,177.8Z" style="fill:#263238"></path><path d="M119.24,177.81c-.38.13-.79.42-1.19.37s-.7-.54-.91-1c0,0-.06,0-.07,0a1.4,1.4,0,0,0,.64,1.8c.67.26,1.32-.24,1.68-.91C119.45,178,119.39,177.76,119.24,177.81Z" style="fill:#263238"></path><path d="M127.23,180.54s.08.08.07.13c-.33,1.13-.51,2.49.42,3.13,0,0,0,.08,0,.06C126.48,183.37,126.74,181.57,127.23,180.54Z" style="fill:#263238"></path><path d="M128.56,179.61c1.88.33,1.08,4.06-.66,3.75S127,179.33,128.56,179.61Z" style="fill:#263238"></path><path d="M129.29,180c.25.26.46.68.81.78s.79-.23,1.13-.56c0,0,.06,0,.05.06-.13.71-.52,1.41-1.24,1.4s-1-.72-1-1.47C129,180.09,129.18,179.91,129.29,180Z" style="fill:#263238"></path><path d="M118.35,188.6c.19.35.35.79.75,1a3,3,0,0,0,1.31.07,0,0,0,0,1,0,.08,1.62,1.62,0,0,1-1.62.19,1.27,1.27,0,0,1-.6-1.27A.07.07,0,0,1,118.35,188.6Z" style="fill:#263238"></path><path d="M124.13,185.57s-.16,1.77-.35,2.58c0,.08-.23.07-.51,0h0a3.94,3.94,0,0,1-3.4-2.31.08.08,0,0,1,.14-.08,6,6,0,0,0,3.29,1.83c.11-.22.18-3,.31-3a7,7,0,0,1,1.74.85c.45-3.69.3-7.42.81-11.08a.11.11,0,0,1,.22,0,60.4,60.4,0,0,1-.36,12C126,186.78,124.42,185.78,124.13,185.57Z" style="fill:#263238"></path><path d="M102.86,177.48c1.88.2,7.59-4.1,9.26-13.06,0,0-2.06,7.94-2.86,9s3.19-2.42,4.64-9.63a29.48,29.48,0,0,0,6.78,5.11c3.26,1.54,5.36,1.86,5.65,1.66s-4.48-2.65-5.58-4.45c0,0,8.39,5.77,12.53,6.8.48.12,2.74-9.76-3-15.09s-16.82-2.5-20-.3c0,0-3.32-.08-7.66,4.12S100.84,177.26,102.86,177.48Z" style="fill:#263238"></path><path d="M116.27,184.1a5.45,5.45,0,1,1,7.22-4.66h0a5.44,5.44,0,0,1-5.9,4.94A5.17,5.17,0,0,1,116.27,184.1Zm3.36-9.59a4.45,4.45,0,0,0-1.15-.25,4.73,4.73,0,1,0,1.15.25Z" style="fill:#4F9CF9"></path><path d="M128.48,186.76c-2-.69-3-3.33-2.43-6.1a6.44,6.44,0,0,1,2-3.46,3.38,3.38,0,0,1,5.66,1.27,6.43,6.43,0,0,1,.3,4c-.66,2.93-3,4.92-5.15,4.43A1.91,1.91,0,0,1,128.48,186.76ZM131.3,177l-.26-.08a2.91,2.91,0,0,0-2.55.8,5.77,5.77,0,0,0-1.73,3.08c-.57,2.54.42,4.93,2.22,5.33s3.71-1.34,4.28-3.88a5.86,5.86,0,0,0-.25-3.52A3,3,0,0,0,131.3,177Z" style="fill:#4F9CF9"></path><path d="M123.18,180l-.34-.65c1-.49,3-1,4,.69l-.62.37C125.34,178.92,123.26,180,123.18,180Z" style="fill:#4F9CF9"></path><path d="M99.19,176.08l-.56-.47c.22-.26,2.18-2.54,3.82-2.44s10.86,3.12,11.26,3.25l-.23.69c-2.67-.87-9.88-3.14-11.07-3.21S99.72,175.45,99.19,176.08Z" style="fill:#4F9CF9"></path><path d="M100.55,182.16a3.64,3.64,0,0,0,.71.43,2.82,2.82,0,0,0,.78.25,2.3,2.3,0,0,0,1,0,2.63,2.63,0,0,0,.77-.3,3.25,3.25,0,0,0,.91-.74l.41-4.72s-2.09-6.28-4.83-5.68S98.09,180.31,100.55,182.16Z" style="fill:#d3766a"></path><path d="M100.55,173.76s-.07,0,0,.07c1.71,1.36,2.19,3.47,2.35,5.54a1.62,1.62,0,0,0-2.2-1.11c-.06,0,0,.11,0,.12a1.8,1.8,0,0,1,1.73,1.17,9.22,9.22,0,0,1,.45,1.81c0,.2.38.2.37,0v-.05C104,178.83,103.13,174.8,100.55,173.76Z" style="fill:#263238"></path><path d="M101,181.53a.8.8,0,0,0,1.6.15.8.8,0,1,0-1.6-.15Z" style="fill:#fff"></path><path d="M99.75,179.89a.57.57,0,0,0,.52.62.56.56,0,0,0,.61-.51.56.56,0,0,0-.51-.62A.57.57,0,0,0,99.75,179.89Z" style="fill:#fff"></path><polygon points="110.15 171.5 106.11 167.13 105.04 168.29 109.53 172.14 110.15 171.5" style="fill:#4F9CF9"></polygon><polygon points="109.21 172.7 104.46 169.11 103.61 170.45 108.72 173.44 109.21 172.7" style="fill:#4F9CF9"></polygon><path d="M88,203.56c-7.15,6.71-28.94,33.06-28.91,40.6.06,11.49,40.25,26.73,46.55,30.53,2.68,1.63,12.13-26.3,9.3-28.09-2.47-1.56-29.63-8.29-29.57-9.53,0-1,5.91-14,10.33-29.85C99.16,194.82,91.72,200.06,88,203.56Z" style="fill:#d3766a"></path><path d="M124.67,256.35c-1.26-1.31-.58-2,2.63-1.53s15.5,5,16.71.55-16.23-10.55-21.62-10.89-14.25,1-14.25,1C111.3,247.33,118.52,252.6,124.67,256.35Z" style="fill:#d3766a"></path><path d="M129.2,255.23a52.18,52.18,0,0,1,5.25,1,47.36,47.36,0,0,0,5.2,1,6.11,6.11,0,0,0,2.5-.18,2.23,2.23,0,0,0,1.46-1.67,2.61,2.61,0,0,0-.86-2.1,11,11,0,0,0-2-1.66,34.25,34.25,0,0,0-4.58-2.6,48.5,48.5,0,0,0-4.89-2q-2.51-.88-5.07-1.6a20.68,20.68,0,0,0-5.21-1,18.64,18.64,0,0,1,5.3.64q2.61.6,5.16,1.4a38.46,38.46,0,0,1,5,2A32.47,32.47,0,0,1,141.2,251a11.79,11.79,0,0,1,2.08,1.8,3.29,3.29,0,0,1,1,2.7,2.93,2.93,0,0,1-1.92,2.15,6.26,6.26,0,0,1-2.78.13C136,257.24,132.7,255.92,129.2,255.23Z" style="fill:#263238"></path><rect x="102.59" y="273.03" width="66.6" height="2.99" style="fill:#c7c7c7"></rect><polygon points="129.41 273.03 127.13 276.02 181.76 276.02 181.76 273.03 129.41 273.03" style="fill:#a6a6a6"></polygon><polygon points="132.25 276.02 197.16 276.02 202.57 231.93 137.66 231.93 132.25 276.02" style="fill:#c7c7c7"></polygon><path d="M163.46,254a3.86,3.86,0,0,0,3.88,4,4,4,0,0,0,4-4,3.87,3.87,0,0,0-3.88-3.95A4,4,0,0,0,163.46,254Z" style="fill:#fff"></path><path d="M97,270.07c9.26,6.25,20.09,11.66,31.75,11.27a5.77,5.77,0,0,0,3.57-1.26c5.23-.08,6.76-2.58,6.76-2.58,4.85-1.56,6.07-4.33,6.07-4.33s6.14-.16,6.66-3.89c.59-4.18-8.15-3.13-13.31-5.5-11.81-5.42-27.09-16.42-30.35-18.32Z" style="fill:#d3766a"></path><path d="M122.12,266.81A84.5,84.5,0,0,0,132.73,271a83,83,0,0,0,12.32,2.1.1.1,0,0,1,0,.2,44.23,44.23,0,0,1-23-6.29C121.89,266.87,121.94,266.73,122.12,266.81Z" style="fill:#263238"></path><path d="M117.81,273.46c3.5,1.3,9.66,3.53,21.27,3.92,0,0,0,.07,0,.07a39.7,39.7,0,0,1-21.33-3.82C117.54,273.53,117.58,273.38,117.81,273.46Z" style="fill:#263238"></path><path d="M115.57,277.08c6,2,10.08,2.46,16.71,3,0,0,.05.07,0,.07-7.61.21-10.39-.57-16.82-2.84C115.25,277.2,115.33,277,115.57,277.08Z" style="fill:#263238"></path><path d="M67.92,222.85l24.51,2.68s4.26-11.64,5.7-18.42c1.91-9-1-11.77-10-5C82.14,206.57,67.92,222.85,67.92,222.85Z" style="fill:#4F9CF9"></path><path d="M67.92,222.85l24.51,2.68s4.26-11.64,5.7-18.42c1.91-9-1-11.77-10-5C82.14,206.57,67.92,222.85,67.92,222.85Z" style="fill:#4F9CF9"></path><path d="M87.21,212a1.83,1.83,0,1,1-1.83-1.83A1.82,1.82,0,0,1,87.21,212Z" style="fill:#fff"></path><path d="M89.44,225.21c.27,0,2.8.17,3,.24.46-1.38.91-2.77,1.39-4.15.24-.69.49-1.37.75-2.05s.58-1.62.84-2.28c0-.1.17-.06.14,0-.24.9-.45,1.56-.67,2.33s-.41,1.38-.63,2.06c-.48,1.44-.93,3-1.48,4.41a26.11,26.11,0,0,1-3.33-.51S89.4,225.21,89.44,225.21Z" style="fill:#263238"></path><path d="M71.7,220c3.46.14,6.9.33,10.35.67,1.71.17,3.43.36,5.14.58s3.4.62,5.11.82c.09,0,.07.16,0,.14-1.7-.28-3.45-.34-5.16-.53s-3.43-.38-5.15-.56c-3.43-.35-6.86-.7-10.29-1C71.58,220.14,71.61,220,71.7,220Z" style="fill:#263238"></path><path d="M82.66,207.27c.06-.07,0-.17-.1-.11-1.13,1-2.23,2-3.33,3a8,8,0,0,1,1.06-1.33,0,0,0,1,0,0,0,10.77,10.77,0,0,0-1.51,1.79q-2.15,2-4.19,4.06a81,81,0,0,0-7.07,8.08.27.27,0,0,0,.21.4c1.16.12,2.38.2,3.52.43a.09.09,0,1,0,0-.18,29.07,29.07,0,0,1-3.05-.66c2.36-2.49,4.58-5.12,6.94-7.63S80.09,209.79,82.66,207.27Z" style="fill:#263238"></path><path d="M201.56,239.38c2.45,3.78,8.49,8.19,9.32,11.43a3.84,3.84,0,0,1-1.58,4.3s3.5,1.2,3.77,4.27c.13,1.57-2.26,3.18-2.26,3.18s2.76,1.09,2.83,3.83c.06,2.18-2.35,3.46-2.35,3.46s2.16,2.28,1.51,4.52c-1.33,4.55-19.91,7-23.69.54-1.76-3,2.81-3.37,2.81-3.37s-6.69-1.08-7.3-4.9,5.37-3.91,5.37-3.91-6.48-1.11-6.71-5.13c-.24-4.18,5.75-3.26,5.75-3.26s-4.5-2.26-4-5.38c.87-5.14,11.47.33,15.43-1.18Z" style="fill:#d3766a"></path><path d="M210.94,270.11c.06,0,.09.07,0,.09a32.48,32.48,0,0,1-19.29,1.39c-.21,0-.21-.4,0-.39A66.76,66.76,0,0,0,210.94,270.11Z" style="fill:#263238"></path><path d="M210.9,262.59c.07,0,.1.1,0,.13-6.11,2.33-14.24,2.91-21.14.2-.24-.09-.36-.41-.08-.32C194.44,264.05,205,263.89,210.9,262.59Z" style="fill:#263238"></path><path d="M188.59,254c6.71,2.34,13.5,2.29,20.46,1.24.09,0,.1.11,0,.14-3.27,1.45-7.78,1.66-11.3,1.52a18.81,18.81,0,0,1-9.28-2.66C188.39,254.15,188.44,253.93,188.59,254Z" style="fill:#263238"></path></g><g id="freepik--Plant--inject-565"><path d="M428.46,371.56a65,65,0,0,0-2.07,11.72c.11.19.09.92,0,.72,0,.64-1,.52-1-.11,0-.41,0-.83,0-1.23-2.29-2.84-5.61-4.64-8.3-7.11a15.53,15.53,0,0,1-4.55-7.24c-2.23-7.67-.14-15.81-2.82-23.47-2.31-6.6-6.45-12.34-10-18.32-3.7-6.33-6.43-13-6.7-20.39-.22-5.67.46-13.23,4.78-17.48,4.58-4.52,10.26-1.14,13.77,2.89C421.79,303.21,426.49,318,428.4,333c1,8.35,2.13,16.74,1.88,25.17A67.45,67.45,0,0,1,428.46,371.56Z" style="fill:#4F9CF9"></path><path d="M426.44,386.34a144.76,144.76,0,0,0-.28-23.65s0,0,0-.08c.12-6.39.63-12.76.38-19.16a113.91,113.91,0,0,0-2.81-20.55.07.07,0,0,0-.13,0,134.38,134.38,0,0,1,2.23,20.1q.19,5.42-.09,10.83c-.06,1.17-.17,2.36-.25,3.54h0a126.57,126.57,0,0,0-19-50.33c-.13-.2-.5,0-.37.23a131.46,131.46,0,0,1,15.48,37.32c-4.89-9.06-12.28-16.51-17.76-25.22,0-.05-.11,0-.08.05,4.92,9.69,13.06,17.34,18.24,26.89.9,3.89,1.64,7.82,2.18,11.77a129.87,129.87,0,0,1,1.18,16.35c-3-5.56-6.07-10.89-8.5-16.78-.07-.16-.29-.05-.24.11,2.07,6.12,4.86,12.7,8.76,17.92,0,3.87-.09,7.75-.32,11.61-.61,10.33-2.37,20.51-3.19,30.8a.24.24,0,0,0,.47,0A236.11,236.11,0,0,0,426.44,386.34Z" style="fill:#263238"></path><path d="M415.47,306.72c0-.07-.14,0-.11.06,1.88,5.21,2.95,10.49,4.31,15.84a.2.2,0,0,0,.39-.07C419.51,317.13,417.57,311.72,415.47,306.72Z" style="fill:#263238"></path><path d="M463.36,333.11A79.65,79.65,0,0,1,459,342c-3.4,6.17-6.94,11.81-7.58,19-.29,3.21-.39,6.43-1.36,9.52a28.8,28.8,0,0,1-3.8,7.45c-3.68,5.36-8.28,10-11.69,15.54a65.28,65.28,0,0,0-7.76,18.73c-.09.36-.66.27-.57-.09,0,0,0-.06,0-.09a.14.14,0,0,1,0-.07c-.54-15.4.69-30.91,5.39-45.66a157.8,157.8,0,0,1,7.46-19c2.51-5.35,5.65-10.49,10.07-14.49,2.86-2.58,9.08-7.47,13.16-4.88C464.27,329.22,464.13,331.19,463.36,333.11Z" style="fill:#4F9CF9"></path><path d="M447.88,368a127.75,127.75,0,0,1-8.94,12.86c-1.49,1.95-3,3.88-4.49,5.83-.71.92-1.49,1.83-2.14,2.82.41-1.62.8-3.24,1.22-4.86,2-7.77,3.89-15.62,6.85-23.1a155.94,155.94,0,0,1,10.69-21c.1-.17-.18-.3-.29-.13-3.25,5.35-6.55,10.69-9.29,16.33a85.49,85.49,0,0,0-3.94,9.69,148.38,148.38,0,0,1,5.25-20.7c0-.06-.07-.11-.09-.05a70.9,70.9,0,0,0-5.45,21.54s0,0,0,0c-.67,2-1.28,4-1.85,6.05-2.43,8.61-4.56,17.31-6.53,26.05a92.8,92.8,0,0,1,1.48-17.12c0-.13-.17-.16-.2,0a54.34,54.34,0,0,0-1.49,18.05q-1.11,5-2.18,10c-1.51,7.1-3.37,14.32-4.26,21.53a.15.15,0,0,0,.29.05c1.05-3.89,1.69-7.91,2.56-11.85s1.75-7.88,2.67-11.81q2-8.59,4.17-17.15c.95-2.09,2.79-3.95,4.18-5.7,1.51-1.93,3-3.86,4.5-5.81A86,86,0,0,0,448,368.07C448.07,368,447.93,367.93,447.88,368Z" style="fill:#263238"></path><path d="M448.54,361.43a79.73,79.73,0,0,0-8.75,13.91c0,.06.06.13.1.07,2.95-4.62,5.84-9.28,8.79-13.9C448.73,361.43,448.6,361.35,448.54,361.43Z" style="fill:#263238"></path><path d="M379.72,351.17c2.13,3.36,4.57,7.39,3.87,11.55-.44,2.63-2.27,4.82-2.51,7.5-.54,5.9,5.46,9.56,9.81,12.17,10.83,6.52,25.56,12.14,28,26.22.09.49.95.34.87-.15a.22.22,0,0,0,0-.1s.06,0,.05-.08a54.28,54.28,0,0,0-1-21.61c-1.86-7.23-5.3-13.67-9.31-19.93-6.78-10.6-13.94-21.44-23.88-29.37-2.75-2.2-8.36-6.12-10.27-.85S377.12,347.08,379.72,351.17Z" style="fill:#4F9CF9"></path><path d="M390.28,373.79c7.3,7.31,18.6,11.13,25,19.39A85,85,0,0,0,395.31,359c-.24-.25.11-.64.37-.4a68.73,68.73,0,0,1,16,21.39,97.93,97.93,0,0,0-7.18-16.46c-.11-.2.18-.39.3-.19a64,64,0,0,1,7.78,18.51c8.69,18.92,10.3,41.45,9.42,61.78,0,.29-.45.32-.45,0-.17-16-1.06-32.23-5.49-47.68-.1-.33-.2-.64-.29-1-6.92-8.88-18.17-12.69-25.63-21.09C390.1,373.84,390.2,373.71,390.28,373.79Z" style="fill:#263238"></path><path d="M388.41,367.34c3.81,3.23,7.56,6.54,11.37,9.77,0,0,0,.1,0,.07a53.68,53.68,0,0,1-11.53-9.61A.16.16,0,0,1,388.41,367.34Z" style="fill:#263238"></path><path d="M387.26,352.75a114.9,114.9,0,0,0,11.59,14.7c0,.06,0,.16-.09.1a53.27,53.27,0,0,1-11.69-14.68A.11.11,0,0,1,387.26,352.75Z" style="fill:#263238"></path><polygon points="407.04 456.05 439.27 456.05 434.92 412.69 412 412.69 407.04 456.05" style="fill:#455a64"></polygon><polygon points="411.19 419.74 435.63 419.74 434.93 412.69 412 412.69 411.19 419.74" style="fill:#263238"></polygon><rect x="408.05" y="407.89" width="30.21" height="6.92" transform="translate(846.31 822.7) rotate(180)" style="fill:#455a64"></rect></g></svg>